<svg xmlns="http://www.w3.org/2000/svg" width="86.023" height="115.829" viewBox="0 0 86.023 115.829">
  <g id="Group_42120" data-name="Group 42120" transform="matrix(0.899, -0.438, 0.438, 0.899, -11.846, 26.896)">
    <g id="Group_41838" data-name="Group 41838" transform="translate(0 0)">
      <path id="Path_5733" data-name="Path 5733" d="M181.723,224.438a23.936,23.936,0,0,1-5.747-1.1,17.745,17.745,0,0,1-2.08-.877c-1.234-.6-3.446-1.067-3.877.7-.644,2.65,3.4,3.586,5.281,3.869a9.229,9.229,0,0,0,3.558.019,4.144,4.144,0,0,0,2.639-2.7c.136-.3.99-.031.869.233-1.2,2.689-3.135,3.271-5.945,3.046-2.115-.167-5.689-.8-6.969-2.751a2.378,2.378,0,0,1,2.305-3.656c1.335.1,2.5.955,3.714,1.444a21.234,21.234,0,0,0,6.131,1.288c.427.039.722.532.12.481h0Z" transform="translate(-138.72 -156.662)" fill="#14074a"/>
      <path id="Path_5734" data-name="Path 5734" d="M182.746,229.238c-.71.807-.128,2.553-.38,3.6a4.909,4.909,0,0,1-1.987,3.093,6.109,6.109,0,0,1-3.213.664,16.345,16.345,0,0,1-4.133-.132,5.627,5.627,0,0,1-3.574-4c-.248-1-.947-3.753.5-4.168.276-.078,1.021.334.532.473-1.09.31-.3,3.345-.1,4.063a4.852,4.852,0,0,0,1.024,1.847c1.156,1.389,2.487,1.413,4.168,1.413,2.437,0,4.63-.05,5.65-2.658a6.555,6.555,0,0,0,.334-2.934,2.056,2.056,0,0,1,.361-1.6c.2-.225,1.032.085.807.341h0Z" transform="translate(-139.13 -160.992)" fill="#14074a"/>
      <path id="Path_5735" data-name="Path 5735" d="M182.808,232.792c0,1.63.023,3.264,0,4.893a5.937,5.937,0,0,1-.71,3.271,8.33,8.33,0,0,1-2.557,1.626,6.06,6.06,0,0,1-3.279.567c-2.107.008-4.226-.345-5.615-2.142a4.99,4.99,0,0,1-.823-2.9c-.05-.869-.291-1.917.307-2.643.19-.229,1.024.078.807.341-.768.935-.295,3.861.295,4.851,1.323,2.212,5.456,2.689,7.618,1.506.605-.33,1.273-.679,1.847-1.052a3.363,3.363,0,0,0,1.191-2.538,50.975,50.975,0,0,0,.05-6.015c0-.268.869-.1.869.233Z" transform="translate(-139.429 -163.526)" fill="#14074a"/>
      <path id="Path_5736" data-name="Path 5736" d="M183.539,255.676c-.109,3.5-2.592,5.565-6.077,5.266a6.169,6.169,0,0,1-3.5-1.867c-.877-.986-.722-2.41-.71-3.632,0-.268.873-.1.869.233a5.869,5.869,0,0,0,.369,3.007,4.658,4.658,0,0,0,4.144,1.707c2.72-.338,3.958-2.394,4.036-4.948.008-.276.881-.1.869.233h0Z" transform="translate(-141.507 -177.528)" fill="#14074a"/>
      <path id="Path_5737" data-name="Path 5737" d="M142.335,150.58c0-1.564.043-3.058,1.234-4.2,1.626-1.56,3.7-2.453,5.266-4.117,1.288-1.37,2.581-2.74,3.842-4.137a48.187,48.187,0,0,0,4.715-5.235c4.5-6.71,6.578-17.633.45-24.1a22.081,22.081,0,0,0-12.639-6.9,18.855,18.855,0,0,0-7.028-.008,17.672,17.672,0,0,0-6.155,2.98,21.218,21.218,0,0,0-7.769,9.5,19.463,19.463,0,0,0-.815,11.409,37.6,37.6,0,0,0,2.662,7.447,11.072,11.072,0,0,0,1.676,2.868c.543.605,1.04,1.234,1.537,1.874,1.156,1.494,2.98,2.782,3.64,4.622a15.685,15.685,0,0,1,.563,5.541c0,.268-.873.1-.869-.233.023-2.068.113-4.5-1.059-6.321a54.879,54.879,0,0,0-3.8-4.517,14.251,14.251,0,0,1-1.738-2.076c-.458-.85-.819-1.8-1.211-2.689a38.476,38.476,0,0,1-2.274-6.624,19.655,19.655,0,0,1,.9-11.746,24.949,24.949,0,0,1,2.98-5.111,21.363,21.363,0,0,1,5.227-4.61,16.25,16.25,0,0,1,10.928-3.042,23.238,23.238,0,0,1,12.185,4.265,17.211,17.211,0,0,1,7.164,9.6c1.106,3.927.481,8.859-.838,12.662a24.471,24.471,0,0,1-3.527,6.426,76.482,76.482,0,0,1-5.522,5.93,27.762,27.762,0,0,1-4.874,4.672c-1.16.757-2.876,1.618-3.543,2.926a6.943,6.943,0,0,0-.442,3.174c0,.268-.869.1-.869-.233h0Z" transform="translate(-100.637 -83.161)" fill="#14074a"/>
      <path id="Path_5738" data-name="Path 5738" d="M167.542,67.989c-.132-2.018-.539-3.958-.543-6V55.009c0-.268.869-.1.869.233v6.45c0,2.185.4,4.245.539,6.407.023.353-.85.182-.869-.109h0Z" transform="translate(-123.958 -54.875)" fill="#14074a"/>
      <path id="Path_5739" data-name="Path 5739" d="M212.184,73.374c.07-1.409-1.61-3.442-2.266-4.649-.625-1.153-1.246-2.305-1.843-3.469a20.08,20.08,0,0,0-1.451-2.973c.279.035.559.07.838.109-.019.062-.039.12-.062.182-.1.3-.966.058-.869-.233l.062-.182c.1-.31.714-.054.838.109a20.708,20.708,0,0,1,1.568,3.2q1.106,2.148,2.274,4.261c.629,1.137,1.847,2.522,1.777,3.884-.016.276-.889.1-.869-.233h0Z" transform="translate(-183.939 -59.243)" fill="#14074a"/>
      <path id="Path_5740" data-name="Path 5740" d="M254.087,119.608a3.411,3.411,0,0,1-1.8-.613c-1.191-.726-2.278-1.506-3.531-2.15a43.016,43.016,0,0,0-4.54-2.006,17.5,17.5,0,0,1-3.489-1.269c-.493-.322.26-.439.539-.256a17.149,17.149,0,0,0,3.291,1.172c1.222.462,2.429.974,3.605,1.541a30.238,30.238,0,0,1,3.015,1.6c.714.45,1.688,1.486,2.569,1.494.326,0,.924.5.338.493h0Z" transform="translate(-238.427 -90.583)" fill="#14074a"/>
      <path id="Path_5741" data-name="Path 5741" d="M259.049,189.8l.128.225c.074.128-.008.217-.14.244-1.9.4-4.055-.027-5.957-.248-1.288-.151-2.577-.206-3.869-.3-1.191-.089-2.406-.435-3.59-.466-.322-.008-.924-.508-.338-.493.92.027,1.789.276,2.7.38,1.2.136,2.4.151,3.593.252,1.106.1,2.2.272,3.314.373.078.008,3.361.093,3.341.058-.2-.353.667-.268.811-.019h0Z" transform="translate(-245.038 -136.804)" fill="#14074a"/>
      <path id="Path_5742" data-name="Path 5742" d="M98.218,210.024c-.244,0-.489,0-.73-.008-.078-.163-.151-.326-.229-.489,2.833.237,5.437,1.777,8.262,2.173,1.444.2,2.9.31,4.346.481a2.549,2.549,0,0,1,1.451.481c.392.295-.473.31-.7.144-.481-.365-2.53-.314-3.093-.384-1.164-.14-2.348-.26-3.5-.5-2.247-.473-4.35-1.719-6.651-1.913-.3-.023-.776-.5-.229-.489.244.008.489.008.73.008.326,0,.924.493.338.493h0Z" transform="translate(-39.767 -149.509)" fill="#14074a"/>
      <path id="Path_5743" data-name="Path 5743" d="M55.037,152.753c.252-.823,1.1-1.079,1.87-1.261,1.366-.326,2.732-.508,4.086-.927a26.15,26.15,0,0,0,9.791-5.39c.167-.147.962-.016.838.287l-.1.256c-.124.3-.982.039-.869-.233l.1-.256c.279.1.559.19.838.287a24.684,24.684,0,0,1-7.982,4.824,30.926,30.926,0,0,1-4.4,1.308c-1.005.2-2.945.159-3.31,1.339-.093.3-.962.062-.869-.233h0Z" transform="translate(16.266 -110.096)" fill="#14074a"/>
      <path id="Path_5744" data-name="Path 5744" d="M93.651,81.326A9.62,9.62,0,0,0,97.54,78.1c1.288-1.568,2.491-3.221,3.648-4.886,1.013-1.459,2.227-3.935,4.323-3.756.427.035.722.532.12.481-1.156-.1-2.193,1.517-2.767,2.332-.761,1.079-1.5,2.169-2.274,3.236-1.653,2.274-3.489,5.215-6.244,6.244-.26.1-1.052-.287-.691-.419h0Z" transform="translate(-33.023 -63.792)" fill="#14074a"/>
      <path id="Path_5745" data-name="Path 5745" d="M99.087,116.31c-.547.8-1.789,1-2.666,1.184a17.722,17.722,0,0,1-3.756.776c-.326,0-.924-.5-.338-.493a16.8,16.8,0,0,0,3.275-.7c.869-.175,2.142-.318,2.681-1.11.163-.241,1.009.047.807.341h0Z" transform="translate(-25.599 -92.206)" fill="#14074a"/>
      <path id="Path_5746" data-name="Path 5746" d="M143.811,80.2a32.261,32.261,0,0,1-1.614,4.307c-.128.3-.986.035-.869-.233a31.546,31.546,0,0,0,1.614-4.307c.081-.3.951-.07.869.233Z" transform="translate(-89.399 -70.143)" fill="#14074a"/>
      <path id="Path_5747" data-name="Path 5747" d="M191.446,76.674c.089.733.163,1.475.279,2.2a9.226,9.226,0,0,1,.256,1.894c-.012.276-.885.1-.869-.233a11.33,11.33,0,0,0-.3-2.064c-.093-.636-.159-1.273-.237-1.913-.043-.345.834-.186.869.109h0Z" transform="translate(-156.682 -68.026)" fill="#14074a"/>
      <path id="Path_5748" data-name="Path 5748" d="M227.471,101.456a31.145,31.145,0,0,0-2.1-2.359,14.19,14.19,0,0,0-2.03-2.01l.706-.012c-.012.062-.027.124-.039.182-.066.3-.939.081-.869-.233.012-.062.027-.124.039-.182.054-.256.582-.093.706-.012a14.862,14.862,0,0,1,2.185,2.123c.776.8,1.521,1.618,2.216,2.487.241.3-.633.241-.811.019h0Z" transform="translate(-205.657 -80.472)" fill="#14074a"/>
      <path id="Path_5749" data-name="Path 5749" d="M239.2,159.757c-.792.446-1.851.1-2.678-.062s-1.673-.233-2.515-.353a25.062,25.062,0,0,0-3.326-.629c-.326,0-.924-.493-.338-.493a39.917,39.917,0,0,1,4.544.757c.927.109,2.817.811,3.621.357.248-.14,1.048.221.691.419h0Z" transform="translate(-219.325 -118.116)" fill="#14074a"/>
      <path id="Path_5750" data-name="Path 5750" d="M95.558,184.557c-.26-1.265,1.638-.636,2.224-.427,1.319.47,4.428,2.519,5.611,1.389.221-.21,1.04.116.807.341-1.021.974-2.891.217-4-.2-.64-.241-3.935-1.812-3.768-.99.066.326-.807.19-.869-.109h0Z" transform="translate(-32.058 -133.763)" fill="#14074a"/>
      <path id="Path_5751" data-name="Path 5751" d="M143.242,140.877c4.661.1,3.143,6.089,2.453,9.057a23.308,23.308,0,0,1-2.569,6.519c-.633,1.075-1.7,2.914-3.085,3.058-3.543.365.889-6.985,1.323-8.072a13.738,13.738,0,0,0,1.044-3.194,29.065,29.065,0,0,0,.031-3.632c0-.924-.582-3.613.939-3.609.326,0,.924.5.338.493-.737,0-.384,7.016-.656,7.912a30.664,30.664,0,0,1-1.645,4.02c-.609,1.316-1.626,2.825-1.859,4.253-.1.609-.241.947.4.939.543-.008.691-.287,1.021-.679a13.844,13.844,0,0,0,1.277-1.762,23.37,23.37,0,0,0,2.014-4.276,23.073,23.073,0,0,0,.993-4.637c.194-1.7,1.246-5.84-1.684-5.906-.326-.008-.924-.5-.338-.493h0Z" transform="translate(-91.051 -107.499)" fill="#14074a"/>
    </g>
    <path id="Path_5796" data-name="Path 5796" d="M173.709,313.6c.035.1.066.21.1.314.027.082-.066.12-.128.136-3.4.935-7.28-2.061-7.373-5.545a5.639,5.639,0,0,1,3.287-5.049,1.413,1.413,0,0,1,2.022.869c.307,1.129-.435,1.936-1.513,1.634-1.4-.4-2.181-1.956-2.542-3.236a14.779,14.779,0,0,1-.194-6.915,22.8,22.8,0,0,1,1.083-3.593,22.73,22.73,0,0,0,1.3-2.907c.05-.225.706-.058.652.175a18.835,18.835,0,0,1-1.2,2.67,22.763,22.763,0,0,0-1.18,3.83,14,14,0,0,0,.318,7.233,3.963,3.963,0,0,0,.986,1.742c1.785,1.51,2.584-1.766.136-.784a5.468,5.468,0,0,0-2.324,3.07,5.03,5.03,0,0,0,.7,4.067,5.214,5.214,0,0,0,1.719,1.711c.345.2,3.756,1.288,3.5.493-.074-.225.582-.14.652.082h0Z" transform="translate(-129.096 -198.272)" fill="#14074a" stroke="#14074a" stroke-width="1.5"/>
  </g>
</svg>
