<svg xmlns="http://www.w3.org/2000/svg" width="81.001" height="20.382" viewBox="0 0 81.001 20.382">
  <g id="Group_42133" data-name="Group 42133" transform="translate(-1173 -3648.221)">
    <g id="Group_11" data-name="Group 11" transform="translate(-200.499 1952.211)" opacity="0.43">
      <path id="Path_101" data-name="Path 101" d="M1534,1328.98l10.147-10.19a10.23,10.23,0,0,1,10.145,10.19c.03,5.088-4.207,10.19-9.9,10.19Z" transform="translate(-140.304 377.22)" fill="#008f46"/>
      <path id="Path_102" data-name="Path 102" d="M1459.292,1329l-10.145,10.188A10.233,10.233,0,0,1,1439,1329c-.032-5.085,4.208-10.19,9.9-10.19Z" transform="translate(-65.5 377.204)" fill="#008f46"/>
      <path id="Path_103" data-name="Path 103" d="M1724.55,1328.98l10.145-10.19a10.233,10.233,0,0,1,10.147,10.19c.032,5.088-4.207,10.19-9.9,10.19Z" transform="translate(-290.343 377.22)" fill="#008f46"/>
      <path id="Path_104" data-name="Path 104" d="M1649.842,1329l-10.148,10.188A10.23,10.23,0,0,1,1629.55,1329c-.03-5.085,4.207-10.19,9.9-10.19Z" transform="translate(-215.539 377.204)" fill="#008f46"/>
    </g>
  </g>
</svg>
