<svg xmlns="http://www.w3.org/2000/svg" width="355.408" height="110.879" viewBox="0 0 355.408 110.879">
  <g id="Group_42131" data-name="Group 42131" transform="translate(-201.2 -4405.537)">
    <path id="Path_5991" data-name="Path 5991" d="M647.474,564.7,603,518.75c0-26.576,22.658-42.866,44.892-43s44.056,18.052,44.056,43Z" transform="translate(-401.8 3941.044)" fill="#c40b0b"/>
    <g id="Group_41860" data-name="Group 41860" transform="translate(378.712 4405.537)">
      <path id="Path_5992" data-name="Path 5992" d="M1018.637,553.321l-11.057,11.058-11.252-11.257,11.053-11.052Zm22.513,0L1030.1,564.379l-11.257-11.257L1029.9,542.07Zm7.084-88.565-11.052,11.053-11.252-11.257,11.052-11.053Zm-44.08,0a44.474,44.474,0,1,0,0,88.948h44.474V464.737Z" transform="translate(-959.68 -453.5)" fill="#003eac"/>
    </g>
    <g id="Group_41861" data-name="Group 41861" transform="translate(467.66 4406.663)">
      <path id="Path_5993" data-name="Path 5993" d="M1194.275,464.436l-11.3,11.321-11.531-11.526,11.321-11.321Zm33.013,88.953c0-43.389-44.474-44.474-44.474-44.474,44.474,0,44.474-44.474,44.474-44.474H1138.34v88.948Z" transform="translate(-1138.34 -452.91)" fill="#ffdf4b"/>
    </g>
    <g id="Group_41859" data-name="Group 41859" transform="translate(289.765 4411.165)">
      <path id="Path_5994" data-name="Path 5994" d="M804.458,575.8l-11.117,11.112-11.316-11.316,11.117-11.087Zm22.638,0-11.112,11.112-11.316-11.316,11.112-11.087Zm43.453,0-11.117,11.112-11.316-11.316,11.117-11.087Zm.339-32.744a44.478,44.478,0,0,0-44.469-44.474c-24.57,0-44.479,20.8-44.479,45.36v32.077h88.948Z" transform="translate(-781.94 -487.104)" fill="#008f46"/>
      <path id="Path_5995" data-name="Path 5995" d="M871.8,497.072l-27.4,27.4-27.9-27.9,27.4-21.045Z" transform="translate(-799.294 -475.53)" fill="#008f46"/>
    </g>
  </g>
</svg>
