<svg width="129" height="33" viewBox="0 0 129 33" fill="none" xmlns="http://www.w3.org/2000/svg">
<g opacity="0.43">
<path fill-rule="evenodd" clip-rule="evenodd" d="M32.14 16.5001L48.18 0.400146C57.77 0.400146 64.1699 8.46012 64.2199 16.5001C64.2699 24.5501 57.5699 32.6101 48.5699 32.6101L32.14 16.5001Z" fill="#C40B0B"/>
<path fill-rule="evenodd" clip-rule="evenodd" d="M32.3 16.5101L16.2599 32.6101C6.67992 32.6101 0.269882 24.5501 0.219882 16.5101C0.169882 8.47013 6.86991 0.400146 15.8699 0.400146L32.3 16.5101Z" fill="#C40B0B"/>
<path fill-rule="evenodd" clip-rule="evenodd" d="M96.18 16.5001L112.21 0.400146C121.8 0.400146 128.2 8.46012 128.25 16.5001C128.3 24.5501 121.6 32.6101 112.61 32.6101L96.18 16.5001Z" fill="#C40B0B"/>
<path fill-rule="evenodd" clip-rule="evenodd" d="M96.33 16.5101L80.29 32.6101C70.71 32.6101 64.3 24.5501 64.25 16.5101C64.21 8.47013 70.9 0.400146 79.9 0.400146L96.33 16.5101Z" fill="#C40B0B"/>
</g>
</svg>
