<svg width="129" height="33" viewBox="0 0 129 33" fill="none" xmlns="http://www.w3.org/2000/svg">
<g opacity="0.43">
<path fill-rule="evenodd" clip-rule="evenodd" d="M48.64 0.0500488C39.75 0.0500488 32.53 7.25991 32.53 16.1599C32.53 25.0599 39.75 32.27 48.64 32.27H64.7499V0.0500488H48.64Z" fill="#003EAC"/>
<path fill-rule="evenodd" clip-rule="evenodd" d="M16.77 0.0500488C25.66 0.0500488 32.8799 7.25991 32.8799 16.1599C32.8799 25.0599 25.66 32.27 16.77 32.27H0.659912V0.0500488H16.77Z" fill="#003EAC"/>
<path fill-rule="evenodd" clip-rule="evenodd" d="M112.66 0.0500488C103.76 0.0500488 96.55 7.25991 96.55 16.1599C96.55 25.0599 103.76 32.27 112.66 32.27H128.76V0.0500488H112.66Z" fill="#003EAC"/>
<path fill-rule="evenodd" clip-rule="evenodd" d="M80.78 0.0500488C89.68 0.0500488 96.89 7.25991 96.89 16.1599C96.89 25.0599 89.68 32.27 80.78 32.27H64.67V0.0500488H80.78Z" fill="#003EAC"/>
</g>
</svg>
