<svg width="129" height="33" viewBox="0 0 129 33" fill="none" xmlns="http://www.w3.org/2000/svg">
<g opacity="0.43">
<path fill-rule="evenodd" clip-rule="evenodd" d="M32.479 16.8799L48.518 0.779785C58.102 0.779785 64.507 8.83988 64.554 16.8799C64.601 24.9199 57.904 32.9902 48.908 32.9902L32.479 16.8799Z" fill="#FFD200"/>
<path fill-rule="evenodd" clip-rule="evenodd" d="M32.63 16.8901L16.594 32.9902C7.01 32.9902 0.604989 24.9301 0.553989 16.8901C0.503989 8.85014 7.20499 0.779785 16.201 0.779785L32.63 16.8901Z" fill="#FFD200"/>
<path fill-rule="evenodd" clip-rule="evenodd" d="M96.512 16.8799L112.548 0.779785C122.132 0.779785 128.537 8.83988 128.587 16.8799C128.638 24.9199 121.937 32.9902 112.941 32.9902L96.512 16.8799Z" fill="#FFD200"/>
<path fill-rule="evenodd" clip-rule="evenodd" d="M96.663 16.8901L80.624 32.9902C71.04 32.9902 64.635 24.9301 64.588 16.8901C64.541 8.85014 71.238 0.779785 80.234 0.779785L96.663 16.8901Z" fill="#FFD200"/>
</g>
</svg>
