<svg xmlns="http://www.w3.org/2000/svg" width="108.428" height="125.898" viewBox="0 0 108.428 125.898">
  <g id="Group_42087" data-name="Group 42087" transform="translate(15573.039 -7517.948) rotate(93)">
    <path id="Path_6112" data-name="Path 6112" d="M252.837,872.162a35.881,35.881,0,0,1-8.192,22.611,33.193,33.193,0,0,1-10.316,8.775,34.641,34.641,0,0,1-20.557,3.992,42.007,42.007,0,0,1-21.959-9.057,31.507,31.507,0,0,1-11.287-17.995,37,37,0,0,1,9.812-34.366,32.785,32.785,0,0,1,10.658-6.388,66.789,66.789,0,0,1,13.72-3.451c10.131-1.749,18.6,1.559,25.891,8.461a39.51,39.51,0,0,1,12.226,27.4Zm-59.5,11.32q-.069-1.249-1.341-.944c.569.375.976.638,1.383.907q2,2.227,4,4.459c.116-.088.231-.176.347-.268-.453-.777-.916-1.55-1.36-2.331a3.423,3.423,0,0,0-3.021-1.827Zm13.309-31.673c.4.342.93.611,1.17,1.041a14.347,14.347,0,0,1,.879,2.248c1.342,3.724,2.669,7.457,4.025,11.176a7.577,7.577,0,0,0,.638,1.129l.4-.194c-1.984-5.264-3.969-10.533-5.972-15.844-.439.185-.777.328-1.1.486-.259.333-.523.666-.773.99.49.648.948,1.258,1.624,2.146Zm21.52,38.719a9.9,9.9,0,0,1,1.466,1.379c1.152,1.61,2.22,3.275,3.326,4.917.37.551.759,1.087,1.161,1.67.412-.213.694-.338.948-.5s.449-.342.754-.583c-2.2-2.9-4.2-5.8-7.341-7.994-.13.518-.2.833-.282,1.143-.43.315-.523,1.189-1.448.671-.652-.365-.934.324-.759.754a2.881,2.881,0,0,0,1.638,1.911c-.032-.588-.06-1.008-.083-1.411.962.162.823,1.656,2.23,1.4a14.764,14.764,0,0,1-1.078-1.67,11.957,11.957,0,0,1-.532-1.688Zm-4.7,3.4a40.431,40.431,0,0,0,4.95-9.673,2.277,2.277,0,0,0-.3-2.378c-1.98-2.706-3.867-5.491-5.713-8.29-1.055-1.6-1.971-3.294-3.035-5.093-1.938,1.753-4.251,1.069-6.333.884-2.179-.194-4.3-.111-6.421-.1-2.419,4.547-4.774,8.979-7.124,13.392.726.86,1.457,1.628,2.072,2.475q2.956,4.08,5.838,8.211a2.3,2.3,0,0,0,2.336,1.11c2.294-.19,4.6-.213,6.906-.3s4.594-.162,6.828-.236Zm12.467-41.277c-.569.065-1,.074-1.411.166-3.761.856-7.522,1.716-11.269,2.618a1.72,1.72,0,0,0-.962.74,5.694,5.694,0,0,0-.666,1.735c-.583,2.859-1.152,5.727-1.647,8.6a2.788,2.788,0,0,0,.347,1.587,99.179,99.179,0,0,0,8.544,13.337,2.452,2.452,0,0,0,.6.518c1.684-.134,3.095-.3,4.51-.352,1.744-.065,3.488-.018,5.232-.051,1.772-.032,1.823-.032,2.271-1.795.874-3.432,1.545-6.93,2.581-10.311.685-2.23.745-4.075-1.184-5.648-.231-.19-.338-.523-.532-.763-1.85-2.341-3.719-4.663-5.537-7.027a4.115,4.115,0,0,1-.611-1.471,17.014,17.014,0,0,1-.264-1.887Zm-53.082,15.691a72.705,72.705,0,0,0,6.943,12.2,2.159,2.159,0,0,0,1.406.62c1.536.2,3.09.273,4.626.463.907.111,1.8.347,2.817.551,2.077-3.877,4.112-7.651,6.106-11.445a1.74,1.74,0,0,0,.106-1.2c-.384-1.24-.856-2.452-1.314-3.668-1.184-3.118-2.378-6.231-3.645-9.539H189.1c-2.012,3.877-4.122,7.943-6.24,12.023Zm60.715-18.43a3.514,3.514,0,0,0-.236-.842,33.084,33.084,0,0,0-18.286-11.884,2.363,2.363,0,0,0-1.462-.023c-.763.379-1.439.083-2.165.065-2.822-.083-5.69-.6-8.28,1.277a15.367,15.367,0,0,1-3.627,1.434c-.458.171-.916.342-1.605.6.393,1.23.745,2.4,1.143,3.557.689,2.008,1.48,3.932,3.807,4.607a4.021,4.021,0,0,1,.944.592c2.281,1.522,4.626,2.961,6.819,4.6a3.353,3.353,0,0,0,3.127.541c3.257-.81,6.513-1.619,9.784-2.378,2.692-.629,2.743-.629,2.683-3.455a14.746,14.746,0,0,0-.389-2.146c.444-.032.962-.231,1.281-.06,1.587.851,3.118,1.809,4.681,2.7.495.282,1.041.481,1.781.819ZM240.782,897.6c-.083-.106-.162-.217-.245-.324-.685.495-1.369.985-2.045,1.49-.3.217-.541.6-.865.675a7.822,7.822,0,0,0-4.145,1.989c-.241.25-1.106.167-1.513-.065a17.824,17.824,0,0,1-2.554-1.86c-1.434-1.193-2.78-2.5-4.26-3.636a3.788,3.788,0,0,0-2.17-.833q-7.189.139-14.373.518a3.92,3.92,0,0,0-2.137.939c-1.374,1.156-2.623,2.461-3.964,3.742a26.865,26.865,0,0,1,.925,2.609,2.576,2.576,0,0,0,1.924,1.975,37.284,37.284,0,0,0,20.248,1.1,31.638,31.638,0,0,0,15.173-8.313Zm-34.028-57.111a15.543,15.543,0,0,0-6.236.513,26.772,26.772,0,0,0-9.229,5.477,7.751,7.751,0,0,0-3.192,8.6c3.733.106,7.272.153,10.8.342a4.751,4.751,0,0,0,3.7-1.277c1.568-1.406,3.284-2.651,4.936-3.964.763-.611,1.522-1.226,2.2-1.776-1-2.669-1.943-5.153-2.984-7.92Zm41.892,17.356c-.18,0-.361,0-.537-.009-.634,2.327-1.286,4.644-1.887,6.976-1.18,4.57-2.3,9.155-3.5,13.72a8.866,8.866,0,0,0-.028,4.575c.925,3.756,1.564,7.573-.268,11.329,1.069.62,1.49-.213,1.952-.823a40.67,40.67,0,0,0,4.769-7.975,2.879,2.879,0,0,0-.074-3.076,18.17,18.17,0,0,1-1.6-3.955,3.286,3.286,0,0,1-.069-1.841,16.829,16.829,0,0,1,3.636-6.578c-.088.8-.347,1.4-.153,1.684.759,1.1.245,2.188.111,3.257-.2,1.591-.523,3.173-.819,4.751a2.8,2.8,0,0,1-.352.814c-.375.68-.379.675.486,1.619,2.591-8.5,1.7-16.584-1.665-24.48ZM181.4,868.314c.971-.944,1.9-1.809,1.022-3.206-.106-.166-.009-.495.056-.731.416-1.559.768-3.141,1.291-4.668a12.979,12.979,0,0,1,2.859-5.389c.449-.439.379-1.406.546-2.133-9.557,12.254-8.59,31.322,1.425,41.73l1.966-1.374c-.467-3.141-.9-6.208-1.4-9.261a9.275,9.275,0,0,0-.819-3.021c-2.244-4.006-4.612-7.943-6.953-11.944Zm9.293,25.364c-.384.282-.911.666-1.536,1.119a38.748,38.748,0,0,0,13.424,8.863c-.384-1.961-.86-2.97-1.744-3.534-3.331-2.137-6.68-4.246-10.145-6.448Zm23.3-43.044c.8,2.281,1.439,4.117,2.1,6.028.86-.31,1.258.023,1.5.851.523,1.8,1.156,3.576,1.813,5.57.666-2.637,1.268-5.028,1.91-7.573-1.147-.763-2.359-1.568-3.793-2.526.065,2.063,2.234,3.021,1.758,5.162-2.188-1.526-2.554-3.844-3.21-6.148l-2.086-1.365Zm1.244,16.718.412-.167c-.171-.564-.31-1.138-.518-1.684-1.54-4.062-3.067-8.128-4.654-12.171-.43-1.1-.86-2.133-.046-3.234.079-.106-.037-.352-.1-.791-.689.495-1.267.907-1.855,1.328.587,1.476,1.147,2.845,1.675,4.223.55,1.448,1.059,2.914,1.6,4.372.518,1.4.99,2.813,1.582,4.177.578,1.342.9,2.84,1.906,3.951ZM241.42,893.28c-.791-.68-1.277-1.388-1.6-1.318-1.106.24-1.416-.555-1.887-1.152-1.73-2.188-3.437-4.395-5.172-6.578a8.232,8.232,0,0,0-.958-.874c-.125.116-.25.227-.375.342,1.628,3.46,4.677,5.87,7.018,8.868l-1.1.675L238.9,895.1c.833-.6,1.568-1.133,2.516-1.823Zm-50.691-7.8a2.138,2.138,0,0,0,.934,2.369q5.4,4.732,10.815,9.446a2.686,2.686,0,0,0,.828.319,19.517,19.517,0,0,0-3.118-3.534C197.15,891.254,193.561,889.047,190.73,885.476Zm26.932-20.2c.111-.06.222-.116.333-.176a1.794,1.794,0,0,0-.051-.527c-.967-2.211-1.957-4.413-2.91-6.629a7.673,7.673,0,0,1-.37-1.425,23.109,23.109,0,0,0-.606-2.84c-.384-1.1-1.277-2.1-1.36-3.192-.079-1.064-.615-1.129-1.638-1.633,1.749,5.944,4.339,11.116,6.606,16.422Zm-12.458,2.17c.62-.352.458-.8.3-1.309-.532-1.721-1.013-3.455-1.536-5.176-.4-1.309-.828-2.6-1.235-3.909-.167-.527-.564-.726-.995-.477a1.049,1.049,0,0,0-.375.893,9.7,9.7,0,0,0,.6,1.753c1.064,2.715,2.137,5.431,3.238,8.229Zm2.433-2.9c.134,0,.273.009.407.009.213-.352.671-.763.606-1.05-.518-2.225-1.124-4.427-1.753-6.62-.051-.176-.523-.37-.736-.314a.945.945,0,0,0-.467.657,2.016,2.016,0,0,0,.1.916c.606,2.137,1.23,4.27,1.85,6.4Zm-14.28,26.668c-.1.162-.194.319-.291.481,1.453,1.309,2.9,2.628,4.362,3.927a27.576,27.576,0,0,0,4.654,3.96c-.662-1.6-4.589-5.514-7.554-7.758a7.773,7.773,0,0,0-1.17-.606Zm53.263-33.177.421.1c.171-.865.736-1.911.435-2.563a40.45,40.45,0,0,0-2.988-4.922c-.1-.157-.379-.194-.93-.458l3.058,7.841Zm-63,6.139c1.175-1.994,2.137-3.576,3.048-5.19.777-1.378.749-2-.014-3.543A27.416,27.416,0,0,0,183.615,864.183Zm14.8,21.483-.476.449c2.623,3.044,5.246,6.083,7.929,9.2.227-.365.439-.615.4-.661-2.507-3.095-5.149-6.065-7.859-8.979Zm-7.9-2.392c-.079.153-.157.305-.236.463.079.222.1.509.25.652.712.661,1.476,1.267,2.193,1.92.736.666,1.42,1.392,2.174,2.04.495.426,1,.43,1.508-.541-1.4-1.3-2.836-2.688-4.344-3.983A4.674,4.674,0,0,0,190.517,883.274Zm50.108,7.651c.167-.347.227-.412.217-.458-.481-2.3-1.957-4.1-3.155-6.023-.18-.292-.921-.241-1.4-.347-.051.111-.1.217-.153.328,1.457,2.109,2.914,4.219,4.492,6.5Zm-32.515-34.2c1.471,6.777,2.567,9.927,3.918,10.912C210.926,863.729,209.455,860.242,208.109,856.726ZM242.2,891.712a13.972,13.972,0,0,0-.541-7.878C240.671,886.507,241.938,889.075,242.2,891.712Zm-12.222-5.694c-.476,1.045-.773,1.7-1.059,2.331,1.388,1.258,2.637,2.387,3.886,3.516.074-.06.148-.12.222-.185-.944-1.753-1.883-3.5-3.044-5.667Zm-33.274,2.572a3.18,3.18,0,0,0,1.175,2.276,26.729,26.729,0,0,1,6.037,6.023c.028.046.217-.014.453-.037-.018-.217.046-.513-.069-.643a77.125,77.125,0,0,0-7.6-7.614Zm6.171.6c.1-.093.2-.185.31-.273-1.143-1.517-2.239-3.072-3.451-4.533a3.232,3.232,0,0,0-3.7-1.235c.606.467,1.032,1.045,1.545,1.138,1.508.268,2.239,1.411,3.113,2.419.722.833,1.448,1.656,2.174,2.484Zm37.817-37.692c-.236,3.164.661,7.031,1.86,7.873a12.781,12.781,0,0,1-.509-3.571c.254-1.675-.671-2.748-1.351-4.3Zm2.678,5.213a3.486,3.486,0,0,0-.106.661c.093.74.194,1.476.3,2.216.227,1.605.495,1.864,2.479,2.29A12.963,12.963,0,0,0,243.372,856.707Zm7.263,15.608c-2.137,3.368-3.109,5.62-1.527,7.3C249.6,877.274,250.075,874.984,250.635,872.315Zm-46.611-15.538c-.046,1.619,1.952,8.239,3.113,9.83-.874-3.266-1.642-6.162-2.429-9.057a1.967,1.967,0,0,0-.352-.638C204.3,856.828,204.14,856.818,204.024,856.777Zm40.819.25c-.328-2.614-1.633-5.348-2.887-6.037C242.267,853.307,243.479,855.01,244.843,857.027Zm-12.365,25.466c1.587,1.938,2.965,3.617,4.344,5.3.1-.069.2-.139.3-.208-1.124-1.651-2.234-3.321-3.4-4.941C233.589,882.469,233.107,882.557,232.478,882.492ZM204.6,854.8c.606.282.731,1.573,1.878.791-.426-.782-.828-1.513-1.281-2.35-.888.722-1.633,1.328-2.405,1.961.958.911,1.318-.037,1.813-.407ZM233,899.1a12.2,12.2,0,0,0-3.178-4.482C230.378,896.629,231.683,898.507,233,899.1Zm6.449-47.11c-.759,1.938-.435,3.677.68,4.714C239.889,855.061,239.667,853.525,239.445,851.994Zm-30.337,12.781c-.537,1-1.184,1.563-.6,2.415.439.634,1.013.49,1.767.143-.361-.791-.694-1.513-1.17-2.558Zm36.6-1.79c-.819.028-1.369-1.013-2.123.028.421.726.643,1.564,1.554,2.017.185-.671.333-1.2.569-2.049ZM192.968,890.9c.051-.148.1-.3.148-.444-.666-.407-1-1.235-2.049-1.453.069.837.12,1.5.18,2.267Zm2.651,4.788.217-.328q-1.735-1.388-3.465-2.776c-.1.125-.2.254-.3.379a12.555,12.555,0,0,0,3.553,2.72Zm42.211-13.184c1.684,1.156,1.943,1.12,2.119,0Zm-.606-34.787v2.914c.426-.768.833-1.5,1.3-2.336C238.233,848.168,237.817,847.983,237.224,847.719Zm-20.613,10.094c-.139.046-.278.088-.416.134a4.661,4.661,0,0,0,1.508,2.9c-.365-1.013-.726-2.021-1.092-3.035Zm-.81,5.806c-.106.046-.213.088-.324.134l1.3,3.359.444-.18c-.476-1.1-.953-2.207-1.425-3.308Zm22.968,20.613c.495.786.814,1.291,1.3,2.063Q240.023,884.384,238.769,884.231Zm-1.129-29.661c.328-1.11.467-1.809-.176-2.637A2.054,2.054,0,0,0,237.641,854.57ZM237.021,883a2.6,2.6,0,0,0-2.507,0Zm.7,13.068c.148-.116.3-.236.444-.352-.486-.564-.967-1.129-1.453-1.688l-.264.213C236.877,894.853,237.3,895.463,237.724,896.069Zm-11.246-1.143c-.13.12-.254.245-.384.365l1.138.86c.079-.1.157-.19.236-.287-.328-.314-.662-.629-.99-.944Zm-19.725-55.682-.111-.319c-.43.153-.86.305-1.291.453.032.1.065.2.1.3C205.889,839.536,206.319,839.393,206.754,839.245Zm33.468,9.974c-.106.032-.213.06-.324.092.065.287.13.569.194.856l.421-.125c-.1-.278-.194-.551-.291-.828Z" transform="translate(8141.256 14213.94)" fill="#1b2851"/>
    <path id="Path_6199" data-name="Path 6199" d="M303.487,1014.06a15.613,15.613,0,0,0,1.291,2.785,34.963,34.963,0,0,0,3.988,4.9,41.258,41.258,0,0,0,11.509,7.832,36.558,36.558,0,0,0,12.735,3.243,34.735,34.735,0,0,0,19.04-4.149,36.549,36.549,0,0,0,12.106-10.616c.444-.6.944-1.156,1.429-1.725a4.9,4.9,0,0,1,.615-.477c-.31,1.9-1.453,3.081-2.429,4.288a36.544,36.544,0,0,1-11.907,9.719,35.838,35.838,0,0,1-18.943,3.932A38.477,38.477,0,0,1,312,1025.727a30.429,30.429,0,0,1-7.277-7.17,23.143,23.143,0,0,1-1.772-3.474c-.116-.259.093-.671.153-1.009l.389-.014Z" transform="translate(8074.934 14118.154)" fill="#1b2851"/>
    <path id="Path_6206" data-name="Path 6206" d="M354.286,950.215a29.817,29.817,0,0,0,1.49,13.105c-2.119-2.817-2.66-6.051-2.7-9.5a1.336,1.336,0,0,0-.967,1.235c-.833,4.159-3.072,7.591-5.773,10.728a27.7,27.7,0,0,1-15.145,9.007,31.877,31.877,0,0,1-12.606.481,2.762,2.762,0,0,1-.7-.393,1.7,1.7,0,0,1,1.8-.416,30.113,30.113,0,0,0,17.44-2.771,27,27,0,0,0,12.721-12.929c.379-.782.736-1.577,1.1-2.373.018-.042-.014-.111-.037-.287-1.161.722-2.248,1.48-3.414,2.1-1.143.606-2.271,1.411-3.932,1.027a43.744,43.744,0,0,0,5.949-3.594c1.716-1.439,3.011-3.372,4.783-5.426Z" transform="translate(8066.892 14152.468)" fill="#1b2851"/>
    <path id="Path_6207" data-name="Path 6207" d="M376.426,882.837c-.759-2.415-2.059-4.45-2.026-7.175.874.227,1.517.342,2.119.56a17.134,17.134,0,0,1,2.216.962,2.676,2.676,0,0,0,3.631-.786,10.639,10.639,0,0,1,1.924-1.753,1.9,1.9,0,0,1,1.508-.342c.347.157.574.884.606,1.374a31.277,31.277,0,0,1-.009,3.358,2.1,2.1,0,0,0,1.323,2.23,34.114,34.114,0,0,1,3.164,1.573c.43.25.995.791.967,1.161-.028.389-.638.842-1.092,1.069a11.013,11.013,0,0,1-2.114.7c-2.345.611-2.683.976-2.937,3.4-.106.99-.106,1.994-.3,2.965-.092.476-.435,1.152-.8,1.263a1.683,1.683,0,0,1-1.434-.527,20.883,20.883,0,0,1-2.012-3.109c-.865-1.619-.888-1.688-2.734-1.5q-1.853.187-3.705.426c-.689.088-1.536.268-1.767-.523-.13-.449.287-1.152.625-1.624.9-1.263,1.883-2.461,2.845-3.7Zm9.034-7.846c-1.166,1.022-2.031,1.707-2.8,2.484a3.315,3.315,0,0,1-4.247.638,11.4,11.4,0,0,0-3.03-1.12c.384,1.156.675,2.035.971,2.914.1.291.217.583.333.87a4.219,4.219,0,0,1-.81,4.348c-.555.754-1.073,1.536-1.86,2.669,1.661-.18,2.822-.352,3.988-.426,2.891-.185,2.729-.319,4.112,2.142.365.648.652,1.346,1.064,1.961a7.756,7.756,0,0,0,1.263,1.133c.167-1.4.328-2.433.407-3.474.222-2.91.643-3.446,3.474-4.279.745-.217,1.476-.467,2.577-.814-1.411-.768-2.447-1.42-3.557-1.906a2.968,2.968,0,0,1-1.906-3.261c.074-1.152.014-2.313.014-3.872Z" transform="translate(8037.309 14193.293)" fill="#1b2851"/>
    <path id="Path_6239" data-name="Path 6239" d="M421.99,1010.854c.2-1.4,1.494-1.638,2.294-2.392s1.739-1.406,2.581-2.142c.888-.772,1.772-1.559,2.6-2.405.754-.777,1.42-1.642,2.285-2.415-.208,3.571-.509,7.128.638,10.515,1.1,3.261,2.512,6.421,3.752,9.539-2.905-1.883-5.685-10.256-5.583-17.2a38.405,38.405,0,0,1-8.558,6.5Z" transform="translate(8010.942 14124.903)" fill="#1b2851"/>
    <path id="Path_6270" data-name="Path 6270" d="M216.062,1016.224c-5.389-1.809-11.833-9.774-10.931-13.3.726,1.5,1.254,2.831,1.98,4.048a23.837,23.837,0,0,0,2.507,3.456,36.954,36.954,0,0,0,3.192,3.118c1.045.939,2.165,1.795,3.247,2.688Z" transform="translate(8127.53 14124.141)" fill="#1b2851"/>
    <path id="Path_6295" data-name="Path 6295" d="M221.93,1001.083c.278,4.177,3.437,6.407,6.1,9.1-.25.079-.439.2-.527.153a13.2,13.2,0,0,1-6.171-7.115,5.245,5.245,0,0,1-.259-1.633c0-.19.305-.389.472-.587Z" transform="translate(8118.918 14125.172)" fill="#1b2851"/>
  </g>
</svg>
