<svg xmlns="http://www.w3.org/2000/svg" width="128.033" height="32.216" viewBox="0 0 128.033 32.216">
  <g id="Group_11" data-name="Group 11" transform="translate(-1373.499 -1696.01)" opacity="0.43">
    <path id="Path_101" data-name="Path 101" d="M1534,1334.9l16.039-16.107a16.17,16.17,0,0,1,16.036,16.107c.047,8.042-6.65,16.107-15.646,16.107Z" transform="translate(-128.576 377.22)" fill="#c40b0b"/>
    <path id="Path_102" data-name="Path 102" d="M1471.075,1334.917l-16.036,16.1a16.175,16.175,0,0,1-16.039-16.1c-.051-8.038,6.65-16.106,15.646-16.106Z" transform="translate(-65.5 377.206)" fill="#c40b0b"/>
    <path id="Path_103" data-name="Path 103" d="M1724.55,1334.9l16.036-16.107a16.175,16.175,0,0,1,16.039,16.107c.05,8.042-6.65,16.107-15.646,16.107Z" transform="translate(-255.093 377.22)" fill="#c40b0b"/>
    <path id="Path_104" data-name="Path 104" d="M1661.625,1334.917l-16.039,16.1a16.17,16.17,0,0,1-16.036-16.1c-.047-8.038,6.65-16.106,15.646-16.106Z" transform="translate(-192.017 377.206)" fill="#c40b0b"/>
  </g>
</svg>
