<svg xmlns="http://www.w3.org/2000/svg" width="81.237" height="132.742" viewBox="0 0 81.237 132.742">
  <g id="Group_41951" data-name="Group 41951" transform="translate(2.856 0.557)">
    <path id="Path_6205" data-name="Path 6205" d="M10.671,9.271c-1.233.865-2.328,1.636-3.5,2.458-.719-.92-1.374-1.762-2.081-2.668-.793.586-1.558,1.153-2.409,1.779A15.18,15.18,0,0,1,0,6.81c1.414.2,2.007-.891,2.984-1.455-.6-1.064-1.164-2.064-1.768-3.136C2.561,1.486,3.567.3,5.16,0c.466.816.92,1.61,1.417,2.481C7.822,1.8,9.058,1.124,10.369.405c.615,1.141,1.17,2.17,1.713,3.185-1.1.86-2.469,1.2-3.093,2.426l1.682,3.257ZM1.958,2.512c.822.877.934,2.081,2.064,2.7-1.006.816-1.981,1.61-2.99,2.426C1.616,8.472,2.139,9.222,2.685,10L5.347,8.23c.575.839,1.156,1.687,1.725,2.521,1.2-.319,1.42-.451,2.915-1.759-.31-.512-.638-1.029-.946-1.558-.322-.558-.624-1.124-1-1.808,1.181-.782,2.259-1.5,3.4-2.254q-.642-1-1.417-2.2L6.468,3.329C5.887,2.415,5.3,1.5,4.706.561,3.737,1.248,2.9,1.846,1.958,2.51Z" transform="translate(17.542 0)" fill="none" stroke="#04123f" stroke-width="1"/>
    <g id="Group_41950" data-name="Group 41950" transform="translate(0 16.581)">
      <path id="Path_6124" data-name="Path 6124" d="M55.9,27.418a16.758,16.758,0,0,0-5.936-.233c-1.871.273-3.726.667-5.732,1.032.224.388.42.742.632,1.087,1.251,2.038,1.262,2.768.081,4.85a17.708,17.708,0,0,1-4.821,5.583,16.893,16.893,0,0,0-1.708,1.388,1.114,1.114,0,0,1-1.455.233c-.713-.371-1.449-.7-2.17-1.046-.4.641-.618,3.412-.328,5.355.262,1.739.664,3.458,1.018,5.249a1.769,1.769,0,0,1-1.572-.328,48.911,48.911,0,0,1-4.361-2.843,23.083,23.083,0,0,1-5.128-5.327,11.387,11.387,0,0,1-2.13-5.68,10.92,10.92,0,0,0-.241-1.483,1.583,1.583,0,0,0-.883-1.13,34.38,34.38,0,0,1-10.326-8.5A40.234,40.234,0,0,1,3.89,12.749,45.328,45.328,0,0,1,2.107,5.091,4.809,4.809,0,0,0,.615,2.032,1.255,1.255,0,0,1,.109.5,1.2,1.2,0,0,1,1.774.187C3.97,1.3,6.321,1.236,8.682,1.314a30.072,30.072,0,0,1,9.912,2.193A40.041,40.041,0,0,1,33.846,14.2c.756.831,1.535,1.641,2.222,2.524a1.143,1.143,0,0,0,1.317.454c3.268-.834,6.18.083,8.954,1.771a39.264,39.264,0,0,1,6.33,5.249c.9.848,1.846,1.641,2.757,2.475a4.341,4.341,0,0,1,.471.736ZM.618.9a2.41,2.41,0,0,0,.377.653,6.188,6.188,0,0,1,1.8,3.912,31.909,31.909,0,0,0,.632,3.763C4.87,14.175,6.646,18.987,9.737,23.2a34.486,34.486,0,0,0,7.279,7.578c1.524,1.121,3.1,2.176,4.691,3.2a2.194,2.194,0,0,1,1.035,1.917,11.467,11.467,0,0,0,1.788,5.571,26.03,26.03,0,0,0,8.158,7.77c.63.4,1.305.73,2.093,1.17a26.691,26.691,0,0,1-.7-11.11l3.4,1.621a20.872,20.872,0,0,0,8.052-9.069c-.5-1.288-1.547-2.423-2.055-3.981,1.854-.4,3.567-.86,5.315-1.107s3.5-.276,5.3-.405a1.647,1.647,0,0,0-.2-.3c-1.4-1.276-2.794-2.558-4.208-3.818a19.566,19.566,0,0,0-6.514-4.145,9.646,9.646,0,0,0-3.973-.667c-.8.066-1.616.109-2.415.23a1.138,1.138,0,0,1-1.161-.538,49.237,49.237,0,0,0-6.937-6.994C22.181,4.936,14.92,1.768,6.442,1.857A9.056,9.056,0,0,1,1.843.848.9.9,0,0,0,.618.9Z" transform="translate(20.674 63.121)" fill="none" stroke="#04123f" stroke-width="2"/>
      <path id="Path_6157" data-name="Path 6157" d="M23.917,30.529c1.012-.365,2.021-.742,3.039-1.089,2.558-.874,5.123-1.733,7.684-2.6.276-.095.549-.2.937-.342-1.4-1.233-2.728-2.354-4-3.533-3.892-3.6-7.583-7.4-11.151-11.323-1.17-1.288-2.418-2.5-3.588-3.792-1.483-1.627-2.924-3.294-4.384-4.944-.078-.086-.132-.193-.213-.276C10.4.773,9.895.647,7.52,1.768c-2.093.989-4.139,2.078-6.215,3.1A1.035,1.035,0,0,0,.7,6.181a19.441,19.441,0,0,1,.2,2.426c.17,3.245.411,6.488.477,9.736.138,6.85.181,13.7.256,20.554.006.529-.037,1.058-.066,1.756a1.389,1.389,0,0,1-.486-1.363c-.04-1.472-.04-2.944-.046-4.415-.006-2.285.014-4.571-.009-6.856C.983,24.458.974,20.893.845,17.337.736,14.365.469,11.4.267,8.431.184,7.2.083,5.976,0,4.852A60.653,60.653,0,0,1,10.386,0c.2.325.293.641.5.776a16.846,16.846,0,0,1,3.34,3.2c2.018,2.291,4.05,4.576,6.163,6.778Q25.735,16.318,31.2,21.77c1.394,1.391,2.947,2.625,4.415,3.941.394.354.753.75,1.081,1.081-.44.155-.831.3-1.225.425-.589.187-1.19.336-1.777.535-2.671.908-5.332,1.843-8.009,2.737-.558.187-1.156.515-1.739.011l-.02.023Z" transform="translate(5.795 0)" fill="none" stroke="#04123f" stroke-width="2"/>
      <path id="Path_6192" data-name="Path 6192" d="M24.272,43.772a5.168,5.168,0,0,1-1.052.057C16.9,42.769,11.3,40.283,6.918,35.479A25.425,25.425,0,0,1,1,24.981a27.491,27.491,0,0,1-.954-6.054A45.484,45.484,0,0,1,2.319,3.085c.207-.664.377-1.34.607-2A10.078,10.078,0,0,1,3.463,0l.218.081c-.129.581-.213,1.179-.394,1.745A53.913,53.913,0,0,0,.881,12.071c-.52,4.588-.546,9.176.966,13.655A26.762,26.762,0,0,0,6.5,34.073c3.984,4.921,9.314,7.523,15.328,8.957.745.178,1.509.253,2.265.382.023,0,.035.066.175.359Z" transform="translate(2.175 50.95)" fill="none" stroke="#04123f" stroke-width="2"/>
      <path id="Path_6211" data-name="Path 6211" d="M22.238,5.14A17.184,17.184,0,0,1,20.37,4.085c-1.4-1.029-2.757-2.124-4.191-3.237l-4.7,1.877c.224,2.377-.448,4.783-.02,7.293l1.23-.121c-.724.67-9.989,4.358-11.714,4.686A4.856,4.856,0,0,1,0,14.517c.328-.273.443-.443.586-.477a63.624,63.624,0,0,0,8.279-2.992c.4-.152.785-.336,1.193-.448a.906.906,0,0,0,.719-1.02c.014-1.935.043-3.869.109-5.8a1.152,1.152,0,0,0-.7-1.23L16.759,0a5.313,5.313,0,0,0,.773,1.121c1.135.931,2.337,1.785,3.473,2.717a12.23,12.23,0,0,1,1.222,1.328l.02-.023Z" transform="translate(7.494 25.366)" fill="none" stroke="#04123f" stroke-width="2"/>
      <path id="Path_6223" data-name="Path 6223" d="M8.61,7.782c-3,.808-5.666,2.067-8.5,2.8C.072,10.5.035,10.412,0,10.329c.342-.207.687-.414,1.061-.641C1.374,6.551.822,3.335,1.607,0c2.547,2.5,4.6,5.18,7,7.779ZM2.19,1.388c-.092.023-.184.046-.279.072a64.039,64.039,0,0,0-.141,7.992C3.74,8.759,5.557,8.118,7.48,7.44,5.629,5.324,3.91,3.358,2.188,1.391Z" transform="translate(13.525 10.415)" fill="none" stroke="#04123f" stroke-width="2"/>
      <path id="Path_6236" data-name="Path 6236" d="M7.238,2.009C2.834,6.048,1.357,7.181,0,7.121c1.058-.785,1.992-1.426,2.863-2.142A32.484,32.484,0,0,0,5.355,2.722C6.163,1.906,6.9,1.009,7.793,0c.043,1.94-.049,3.743.155,5.511.2,1.745.7,3.458,1,5.215A5.161,5.161,0,0,1,7.767,8.06,24.744,24.744,0,0,1,7.258,5.1C7.172,4.073,7.238,3.036,7.238,2Z" transform="translate(0 46.955)" fill="none" stroke="#04123f" stroke-width="2"/>
    </g>
  </g>
</svg>
