<svg xmlns="http://www.w3.org/2000/svg" width="139.075" height="172.206" viewBox="0 0 139.075 172.206">
  <g id="Group_41858" data-name="Group 41858" transform="translate(-24.831 49.356) rotate(-31)">
    <g id="Group_41838" data-name="Group 41838">
      <path id="Path_5733" data-name="Path 5733" d="M170.075,226.306a37.783,37.783,0,0,0,9.072-1.74,28.008,28.008,0,0,0,3.283-1.384c1.948-.949,5.439-1.685,6.119,1.109,1.017,4.184-5.36,5.66-8.337,6.107a14.567,14.567,0,0,1-5.617.031c-2.211-.582-3.289-2.309-4.165-4.269-.214-.472-1.562-.049-1.372.368,1.9,4.245,4.949,5.164,9.384,4.809,3.338-.263,8.98-1.268,11-4.343a3.754,3.754,0,0,0-3.639-5.77c-2.107.165-3.945,1.507-5.862,2.279a33.519,33.519,0,0,1-9.678,2.034c-.674.061-1.139.839-.19.76h0Z" transform="translate(-99.201 -119.321)" fill="#14074a"/>
      <path id="Path_5734" data-name="Path 5734" d="M169.12,229.789c1.121,1.274.2,4.031.6,5.684a7.749,7.749,0,0,0,3.136,4.882,9.643,9.643,0,0,0,5.072,1.047c2.089.006,4.484.337,6.524-.208,2.775-.747,4.968-3.62,5.642-6.315.392-1.58,1.495-5.923-.8-6.579-.435-.123-1.611.527-.839.747,1.721.49.478,5.28.159,6.413A7.659,7.659,0,0,1,187,238.377c-1.825,2.193-3.926,2.23-6.579,2.23-3.847,0-7.308-.08-8.919-4.2a10.347,10.347,0,0,1-.527-4.631,3.246,3.246,0,0,0-.57-2.524c-.312-.355-1.629.135-1.274.539h0Z" transform="translate(-99.213 -122.063)" fill="#14074a"/>
      <path id="Path_5735" data-name="Path 5735" d="M169.75,233c0,2.573-.037,5.152,0,7.724.025,1.654.116,3.773,1.121,5.164.815,1.127,2.854,1.9,4.037,2.567,1.715.962,3.234.888,5.176.894,3.326.012,6.671-.545,8.864-3.381a7.877,7.877,0,0,0,1.3-4.576c.08-1.372.459-3.026-.484-4.171-.3-.361-1.617.123-1.274.539,1.213,1.476.466,6.095-.466,7.657-2.089,3.492-8.612,4.245-12.024,2.377-.956-.521-2.009-1.072-2.916-1.66-1.292-.839-1.7-2.511-1.881-4.006a80.463,80.463,0,0,1-.08-9.495c0-.423-1.372-.165-1.372.368Z" transform="translate(-99.47 -123.667)" fill="#14074a"/>
      <path id="Path_5736" data-name="Path 5736" d="M173.23,255.89c.172,5.519,4.092,8.784,9.593,8.312a9.738,9.738,0,0,0,5.531-2.946c1.384-1.556,1.139-3.8,1.121-5.733,0-.423-1.378-.165-1.372.368.012,1.476.233,3.406-.582,4.747-1.219,2-4.459,2.952-6.542,2.7-4.294-.533-6.248-3.779-6.371-7.81-.012-.435-1.391-.165-1.372.368h0Z" transform="translate(-100.824 -132.532)" fill="#14074a"/>
      <path id="Path_5737" data-name="Path 5737" d="M153.932,179.205c0-2.469-.067-4.827-1.948-6.628-2.567-2.462-5.838-3.871-8.312-6.5-2.034-2.162-4.073-4.325-6.064-6.53-2.505-2.775-5.348-5.133-7.442-8.263-7.1-10.591-10.383-27.834-.711-38.045,5.292-5.593,12.282-9.789,19.951-10.891,3.657-.527,7.467-.876,11.093-.012a27.9,27.9,0,0,1,9.715,4.7c5.439,3.9,9.782,8.68,12.263,14.989a30.722,30.722,0,0,1,1.286,18.009,59.35,59.35,0,0,1-4.2,11.755,17.477,17.477,0,0,1-2.646,4.527c-.858.956-1.642,1.948-2.426,2.959-1.825,2.358-4.7,4.392-5.746,7.3-1.011,2.818-.919,5.8-.888,8.747,0,.423,1.378.165,1.372-.368-.037-3.265-.178-7.1,1.672-9.978,1.629-2.536,4.08-4.778,5.991-7.13a22.5,22.5,0,0,0,2.744-3.277c.723-1.341,1.292-2.842,1.911-4.245a60.736,60.736,0,0,0,3.59-10.456,31.025,31.025,0,0,0-1.427-18.542,39.383,39.383,0,0,0-4.7-8.067c-2.162-2.971-5.268-5.188-8.251-7.277a25.65,25.65,0,0,0-17.249-4.8,36.681,36.681,0,0,0-19.234,6.732c-5.519,3.914-9.458,8.588-11.308,15.161-1.746,6.2-.76,13.985,1.323,19.988a38.628,38.628,0,0,0,5.568,10.144c2.493,3.369,5.868,6.273,8.717,9.36,2.389,2.585,4.729,5.439,7.694,7.375,1.832,1.194,4.539,2.554,5.593,4.619a10.959,10.959,0,0,1,.7,5.011c0,.423,1.372.165,1.372-.368h0Z" transform="translate(-80.999 -72.784)" fill="#14074a"/>
      <path id="Path_5738" data-name="Path 5738" d="M168.366,75.576c.208-3.185.851-6.248.858-9.47V55.086c0-.423-1.372-.165-1.372.368V65.634c0,3.449-.631,6.7-.851,10.113-.037.557,1.341.288,1.372-.172h0Z" transform="translate(-98.41 -54.875)" fill="#14074a"/>
      <path id="Path_5739" data-name="Path 5739" d="M207.893,79.947c-.11-2.224,2.542-5.433,3.577-7.338.986-1.819,1.966-3.639,2.91-5.476.735-1.433,1.317-3.424,2.291-4.692-.441.055-.882.11-1.323.172.031.1.061.19.1.288.159.478,1.525.092,1.372-.368l-.1-.288c-.165-.49-1.127-.086-1.323.172-1.09,1.415-1.648,3.436-2.475,5.047q-1.746,3.39-3.59,6.726c-.992,1.795-2.916,3.982-2.805,6.132.025.435,1.4.159,1.372-.368h0Z" transform="translate(-113.724 -57.641)" fill="#14074a"/>
      <path id="Path_5740" data-name="Path 5740" d="M240.947,123.3a5.384,5.384,0,0,0,2.842-.968c1.881-1.145,3.6-2.377,5.574-3.394a67.9,67.9,0,0,1,7.167-3.167c1.783-.668,3.9-.956,5.507-2,.778-.508-.41-.692-.851-.4-1.44.943-3.565,1.237-5.194,1.85-1.93.729-3.835,1.537-5.691,2.432a47.727,47.727,0,0,0-4.76,2.524c-1.127.711-2.665,2.346-4.055,2.358-.515,0-1.458.784-.533.778h0Z" transform="translate(-126.913 -77.484)" fill="#14074a"/>
      <path id="Path_5741" data-name="Path 5741" d="M245.284,190.4l-.2.355c-.116.2.012.343.221.386,3,.631,6.4-.043,9.4-.392,2.034-.239,4.067-.325,6.107-.478,1.881-.141,3.8-.686,5.666-.735.508-.012,1.458-.8.533-.778-1.452.043-2.824.435-4.269.6-1.887.214-3.786.239-5.672.4-1.746.153-3.479.429-5.231.588-.122.012-5.3.147-5.274.092.319-.557-1.054-.423-1.28-.031h0Z" transform="translate(-128.646 -106.749)" fill="#14074a"/>
      <path id="Path_5742" data-name="Path 5742" d="M117.739,210.316c.386,0,.772,0,1.152-.012.123-.257.239-.515.361-.772-4.472.374-8.582,2.805-13.041,3.43-2.279.319-4.576.49-6.861.76a4.024,4.024,0,0,0-2.291.76c-.619.466.747.49,1.1.227.76-.576,3.994-.5,4.882-.606,1.838-.221,3.706-.41,5.519-.79,3.547-.747,6.867-2.714,10.5-3.02.472-.037,1.225-.784.361-.772-.386.012-.772.012-1.152.012-.515,0-1.458.778-.533.778h0Z" transform="translate(-71.251 -114.792)" fill="#14074a"/>
      <path id="Path_5743" data-name="Path 5743" d="M81.227,157.173c-.4-1.3-1.74-1.7-2.952-1.991-2.156-.515-4.312-.8-6.45-1.464A41.277,41.277,0,0,1,56.37,145.21c-.263-.233-1.519-.025-1.323.453l.165.4c.2.478,1.55.061,1.372-.368l-.165-.4c-.441.153-.882.3-1.323.453a38.963,38.963,0,0,0,12.6,7.614,48.817,48.817,0,0,0,6.94,2.064c1.586.319,4.649.251,5.225,2.113.147.478,1.519.1,1.372-.368h0Z" transform="translate(-55.026 -89.838)" fill="#14074a"/>
      <path id="Path_5744" data-name="Path 5744" d="M113.009,88.2c-2.579-.962-4.435-3.014-6.138-5.1-2.034-2.475-3.933-5.084-5.758-7.712-1.6-2.3-3.516-6.211-6.824-5.929-.674.055-1.139.839-.19.76,1.825-.153,3.461,2.4,4.367,3.681,1.2,1.7,2.364,3.424,3.59,5.109,2.609,3.59,5.507,8.233,9.856,9.856.41.153,1.66-.453,1.09-.662h0Z" transform="translate(-69.957 -60.521)" fill="#14074a"/>
      <path id="Path_5745" data-name="Path 5745" d="M92.135,116.559c.864,1.268,2.824,1.574,4.208,1.868,1.917.4,3.982,1.262,5.929,1.225.515-.006,1.458-.8.533-.778-1.636.031-3.528-.772-5.17-1.1-1.372-.276-3.381-.5-4.233-1.752-.257-.38-1.593.074-1.274.539h0Z" transform="translate(-69.383 -78.511)" fill="#14074a"/>
      <path id="Path_5746" data-name="Path 5746" d="M141.325,80.416a50.925,50.925,0,0,0,2.548,6.8c.2.478,1.556.055,1.372-.368a49.79,49.79,0,0,1-2.548-6.8c-.129-.478-1.5-.11-1.372.368Z" transform="translate(-88.459 -64.542)" fill="#14074a"/>
      <path id="Path_5747" data-name="Path 5747" d="M191.422,76.852c-.141,1.158-.257,2.328-.441,3.479a14.561,14.561,0,0,0-.4,2.989c.018.435,1.4.159,1.372-.368a17.88,17.88,0,0,1,.478-3.259c.147-1,.251-2.009.374-3.02.067-.545-1.317-.294-1.372.172h0Z" transform="translate(-107.543 -63.201)" fill="#14074a"/>
      <path id="Path_5748" data-name="Path 5748" d="M224.479,104.205a49.158,49.158,0,0,1,3.32-3.724,22.4,22.4,0,0,1,3.2-3.173l-1.115-.018c.018.1.043.2.061.288.1.472,1.482.129,1.372-.368-.018-.1-.043-.2-.061-.288-.086-.4-.919-.147-1.115-.018a23.458,23.458,0,0,0-3.449,3.351c-1.225,1.256-2.4,2.554-3.5,3.926-.38.472,1,.38,1.28.031h0Z" transform="translate(-120.159 -71.082)" fill="#14074a"/>
      <path id="Path_5749" data-name="Path 5749" d="M230.24,160.646c1.25.7,2.922.153,4.227-.1s2.64-.368,3.969-.557c1.721-.245,3.528-.992,5.25-.992.515,0,1.458-.778.533-.778-2.413,0-4.772.913-7.173,1.194-1.464.172-4.447,1.28-5.715.564-.392-.221-1.654.349-1.09.662h0Z" transform="translate(-122.858 -94.916)" fill="#14074a"/>
      <path id="Path_5750" data-name="Path 5750" d="M109.24,185c.41-2-2.585-1-3.51-.674-2.083.741-6.989,3.975-8.857,2.193-.349-.331-1.642.184-1.274.539,1.611,1.537,4.563.343,6.322-.319,1.011-.38,6.211-2.861,5.948-1.562-.1.515,1.274.3,1.372-.172h0Z" transform="translate(-70.721 -104.823)" fill="#14074a"/>
      <path id="Path_5751" data-name="Path 5751" d="M143.806,140.882c-7.357.165-4.962,9.611-3.871,14.3a36.791,36.791,0,0,0,4.055,10.291c1,1.7,2.677,4.6,4.87,4.827,5.593.576-1.4-11.026-2.089-12.741a21.687,21.687,0,0,1-1.648-5.041,45.885,45.885,0,0,1-.049-5.733c0-1.458.919-5.7-1.482-5.7-.515,0-1.458.784-.533.778,1.164,0,.606,11.075,1.035,12.49a48.407,48.407,0,0,0,2.6,6.346c.962,2.077,2.567,4.459,2.934,6.714.159.962.38,1.495-.637,1.482-.858-.012-1.09-.453-1.611-1.072a21.858,21.858,0,0,1-2.015-2.781,36.889,36.889,0,0,1-3.179-6.75,36.422,36.422,0,0,1-1.568-7.32c-.306-2.689-1.966-9.219,2.658-9.323.515-.012,1.458-.8.533-.778h0Z" transform="translate(-87.437 -88.194)" fill="#14074a"/>
    </g>
    <path id="Path_5796" data-name="Path 5796" d="M166.474,327.719c-.055.165-.1.331-.159.5-.043.129.1.19.2.214,5.372,1.476,11.491-3.253,11.638-8.753a8.9,8.9,0,0,0-5.188-7.969c-1.36-.508-2.781-.123-3.191,1.372-.484,1.783.686,3.057,2.389,2.579,2.211-.625,3.443-3.087,4.012-5.109a23.328,23.328,0,0,0,.306-10.916,35.985,35.985,0,0,0-1.709-5.672c-.582-1.495-1.7-3.038-2.052-4.588-.08-.355-1.115-.092-1.029.276.325,1.464,1.341,2.818,1.9,4.214a35.929,35.929,0,0,1,1.862,6.046,22.1,22.1,0,0,1-.5,11.418,6.255,6.255,0,0,1-1.556,2.75c-2.818,2.383-4.08-2.787-.214-1.237,1.611.649,3.234,3.308,3.669,4.845a7.94,7.94,0,0,1-1.1,6.42,8.23,8.23,0,0,1-2.714,2.7c-.545.319-5.929,2.034-5.525.778.116-.355-.919-.221-1.029.129h0Z" transform="translate(-98.142 -145.667)" fill="#14074a" stroke="#14074a" stroke-width="1.5"/>
  </g>
</svg>
