<svg xmlns="http://www.w3.org/2000/svg" width="95.06" height="157.474" viewBox="0 0 95.06 157.474">
  <g id="Group_42130" data-name="Group 42130" transform="translate(-1504.88 -4131.151)">
    <g id="Group_42101" data-name="Group 42101" transform="translate(821.293 3749.214) rotate(14)">
      <path id="Path_5752" data-name="Path 5752" d="M817.553,319.348c-.074.475-.148.944-.221,1.419.4-.047.786-.1,1.181-.148a16.434,16.434,0,0,0-.585-7.594,7.963,7.963,0,0,0-1.862-2.811c-.923-.991-1.593-2.2-2.552-3.148a59.136,59.136,0,0,1-5.833-5.943,50.463,50.463,0,0,1-5.332-8.3,20.073,20.073,0,0,1-2.542-8.2,24.631,24.631,0,0,1,.348-5.21,12.833,12.833,0,0,1,2.025-4.546,29.952,29.952,0,0,1,4.567-6.012,36.556,36.556,0,0,1,3.006-2.225,32.9,32.9,0,0,1,4.013-3.254,35.028,35.028,0,0,1,19.449-4.5,23.6,23.6,0,0,1,9,3.027c2.726,1.419,5.527,2.721,7.81,4.82a42.455,42.455,0,0,1,4.952,5.912,28.944,28.944,0,0,1,4.44,7.193c2.051,5.6,1.06,12.124-.77,17.635a44.783,44.783,0,0,1-4.393,9.4c-2.11,3.4-4.841,5.274-8.485,6.808a23.131,23.131,0,0,0-6.993,4.414,11.519,11.519,0,0,0-2.3,2.985c-.612,1.155-.628,2.458-1.229,3.6-.258.5.918.369,1.1.026.527-1,.564-2.1,1.018-3.133a10.956,10.956,0,0,1,3.122-3.95c2.642-2.2,5.674-3.164,8.644-4.757,5.121-2.742,7.789-8.016,9.857-13.242,2.257-5.7,3.518-12.135,2.157-18.21a20.306,20.306,0,0,0-3.686-7.383,61.022,61.022,0,0,0-5.427-6.882A26.484,26.484,0,0,0,845,262.313a39,39,0,0,0-8.011-3.565c-5.442-1.45-12.177-.454-17.414,1.4a29.563,29.563,0,0,0-7.71,3.655c-1.081.807-2.014,1.793-3.064,2.637a30.907,30.907,0,0,0-3.491,2.763,38.065,38.065,0,0,0-4.731,6.434,15.3,15.3,0,0,0-1.967,8.506c.021,6.756,4.694,13.564,8.881,18.584a28.666,28.666,0,0,0,3.692,3.813,20.156,20.156,0,0,1,2.885,3.191c1.34,1.635,2.568,2.758,3.08,4.931a18.005,18.005,0,0,1,.185,6.107c-.063.464,1.118.253,1.181-.148.074-.475.148-.944.221-1.419.069-.459-1.118-.253-1.181.148Z" transform="translate(-12.121 -3.336)" fill="#615885" stroke="#000" stroke-width="1"/>
      <path id="Path_5753" data-name="Path 5753" d="M835.547,372.9c-1.682.311-1.329,2.378-.612,3.56.691,1.134,2.173,1.413,3.37,1.73a38.291,38.291,0,0,0,6.777,1.134c1.819.137,3.612.174,5.442.39.976.116,2.463.111,3.1.923a3.023,3.023,0,0,1,.106,2.732c-1.45,3.428-9.1,1.139-11.845.907-1.667-.142-3.787-.211-5.29.664-1.6.939-1.392,2.732.026,3.8,2.094,1.582,5.464,1.972,7.99,1.925,1.392-.026,3.787-.359,4.446,1.218a3.647,3.647,0,0,1-.058,2.426c-.749,2.12-3.222,1.978-5.084,2.051-2.136.084-4.931.227-5.954,2.494-.786,1.74-.137,5.611,1.93,6.223.374.111,1.387-.443.722-.643-1.165-.348-1.619-2.558-1.735-3.612-.258-2.389,1.245-3.565,3.512-3.744,2.03-.158,4.3.111,6.149-.933,1.566-.886,2.542-3.333,1.5-4.962-1.345-2.115-5.806-1.023-7.826-1.382a12.217,12.217,0,0,1-4.245-1.361c-1.7-1.049-1.83-2.948.264-3.423,2.463-.554,5.195.237,7.636.485,2.595.264,5.427.559,7.805-.786,1.3-.733,2.13-3.106,1.271-4.435-.744-1.15-2.89-1.107-4.04-1.25-.918-.111-1.84-.364-2.758-.443-1.018-.09-2.03.069-3.054,0a29.348,29.348,0,0,1-7.04-1.334c-1.129-.369-1.877-.733-2.268-1.92-.095-.285-.253-1.809-.406-1.783.554-.105.976-.807.163-.654h0Z" transform="translate(-29.008 -57.605)" fill="#615885" stroke="#000" stroke-width="1"/>
      <path id="Path_5754" data-name="Path 5754" d="M841.288,378.863a2.95,2.95,0,0,0,3.607,2.294,2.316,2.316,0,0,0,1.45-1.3,15.913,15.913,0,0,0,1.339-4.831c.443-3.554.8-7.093,1.245-10.632a23.6,23.6,0,0,0-.206-4.915c-.169-2.083-.042-4.166-.116-6.249A27.6,27.6,0,0,0,847.69,348c-.464-2.009-.686-4.05-.992-6.086a73.66,73.66,0,0,0-2.426-11.644c-.411-1.292-.754-4.583-2.046-5.289-1.134-.622-1.967.432-2.215,1.424a7.635,7.635,0,0,0,1.893,6.882c1.06,1.134,2.964,2.953,4.673,2.4a4.412,4.412,0,0,0,1.935-1.793A23.8,23.8,0,0,0,851.2,329.6a17.859,17.859,0,0,0,1.419-4.488c.211-1.171.654-2.742-.079-3.829-.918-1.371-2.473-.754-3.307.359-1.841,2.463-1.635,6.081-.317,8.686a6.1,6.1,0,0,0,5.4,3.7,6.258,6.258,0,0,0,5.384-1.972,5.4,5.4,0,0,0,1.582-3.781c-.116-.875-.759-2.136-1.746-2.268-1.745-.237-3.217,2.637-3.744,3.839-1.661,3.781-2.094,8.127-2.716,12.172a16.127,16.127,0,0,0,.121,5.442c.369,1.925,1.55,3.887,1.245,5.885-.069.459,1.118.253,1.181-.148.032-.211.069-.427.1-.638.074-.459-1.118-.253-1.181.148-.032.211-.069.427-.1.638.4-.047.786-.1,1.181-.148.253-1.651-.469-3.238-.912-4.8a17.345,17.345,0,0,1-.253-7.721c.691-4.166.96-9.435,3.644-12.894.559-.722.844-1.271,1.5-.448,1.071,1.334.206,3.112-.67,4.282-1.809,2.415-5.859,2.315-7.784.053a8.9,8.9,0,0,1-2-6.666c.084-.67.475-3.017,1.192-3.328,2.02-.881,1.218,2.959,1.1,3.6a18.243,18.243,0,0,1-2.31,6.139,12.183,12.183,0,0,1-1.909,2.727c-1.208,1.055-1.92.522-3.011-.285a8.023,8.023,0,0,1-3.1-4.657,7.106,7.106,0,0,1,.048-2.711c.227-1.239.517-.575.828.322a77.291,77.291,0,0,1,2.843,11.2c.427,2.3.754,4.63,1.076,6.951.337,2.4,1.065,4.709,1.392,7.1.369,2.679.032,5.442.28,8.143a20.344,20.344,0,0,1,.174,4.351c-.153,1.255-.417,2.4-.454,3.676a66.872,66.872,0,0,1-.87,7.652,9.047,9.047,0,0,1-.918,3.022c-.417.759-.833,1.846-1.893,1.329a2.263,2.263,0,0,1-1.139-1.672c-.074-.4-1.266-.116-1.181.316h0Z" transform="translate(-31.595 -32.849)" fill="#615885" stroke="#000" stroke-width="1"/>
      <path id="Path_5755" data-name="Path 5755" d="M786.078,251.067c-8.385,3.665-11.771,12.172-13.11,20.689-.074.459,1.118.253,1.181-.148,1.276-8.09,4.361-16.544,12.4-20.056.754-.327.069-.717-.469-.485Z" fill="#615885" stroke="#000" stroke-width="1"/>
      <path id="Path_5756" data-name="Path 5756" d="M787.439,275.974c-1.93,2.421-2.51,5.5-3.38,8.406a12.973,12.973,0,0,0-.86,4.409c.1,1.466.881,2.811,1.223,4.224.1.406,1.282.105,1.181-.316-.3-1.224-.912-2.368-1.139-3.6a10.727,10.727,0,0,1,.77-4.862c.854-2.837,1.413-5.87,3.3-8.232.327-.406-.86-.327-1.1-.026h0Z" transform="translate(-4.832 -11.686)" fill="#615885" stroke="#000" stroke-width="1"/>
      <path id="Path_5757" data-name="Path 5757" d="M937.56,307.7c-.322-.443-.211-.353-.712-.543a.9.9,0,0,0-1.06.359c-.881,2.183-.048,4.477-.011,6.734a30.515,30.515,0,0,1-1.118,8.311,39.248,39.248,0,0,1-3.143,7.953,55.57,55.57,0,0,1-4.994,7.061c-.316.427.87.338,1.1.026a55.063,55.063,0,0,0,4.994-7.061,41.253,41.253,0,0,0,3.032-7.441,32.8,32.8,0,0,0,1.313-8.4c.068-2.426-.928-5.015.01-7.336-.353.121-.707.243-1.06.359.185.142.369.29.559.432.237.322,1.376-.079,1.1-.464h0Z" transform="translate(-72.552 -26.521)" fill="#615885" stroke="#000" stroke-width="1"/>
      <path id="Path_5758" data-name="Path 5758" d="M911.238,352.928c-1.424,2.922-2.526,5.891-4.672,8.39a18.956,18.956,0,0,1-4.382,3.9,16.4,16.4,0,0,1-2.247,1.4c-.712.179-.554.77.158.591a11.254,11.254,0,0,0,2.821-1.64,18.735,18.735,0,0,0,3.929-3.312c2.584-2.785,3.86-5.949,5.5-9.3.248-.506-.928-.374-1.1-.026h0Z" transform="translate(-59.793 -48.033)" fill="#615885" stroke="#000" stroke-width="1"/>
    </g>
    <path id="Path_7369" data-name="Path 7369" d="M753.74,618.31l4.44-10.44c.61-1.42,1.28-4.39,2.46-5.41,2.78-2.42,3.47,1.94,3.96,3.52,2.36,7.62,4.36,15.36,6.19,23.12l2.16-.74a103.071,103.071,0,0,0-12.8-14.64c-3.52-3.32-7.16-6.74-12.26-6.82-.34,0-2.33.79-1.33,1.18a143.07,143.07,0,0,0,26,7.39c.08-.36.16-.71.24-1.07a164.574,164.574,0,0,1-25.17,7.96c.4.19.8.39,1.19.58.82-.57,1.64-1.15,2.45-1.72,1.05-.2,1.85-1.54.31-1.24a6.957,6.957,0,0,0-4.85,2.91c-.51.7.89.65,1.19.58a169.78,169.78,0,0,0,25.76-8.16c.46-.19,1.1-.91.24-1.07a139.574,139.574,0,0,1-25.59-7.26L747,608.16c5.61.08,10.27,5.51,13.93,9.25a104.68,104.68,0,0,1,9.92,11.82c.39.54,2.34.01,2.16-.74q-2.145-9.105-4.71-18.1c-.79-2.77-1.46-9.65-5.23-10.32-2.27-.4-4.02,1.35-5.01,3.15-2.65,4.8-4.43,10.31-6.57,15.36-.3.7,1.93.45,2.24-.28h0Z" transform="translate(825.596 3531.139)" fill="#333e63"/>
  </g>
</svg>
