<svg xmlns="http://www.w3.org/2000/svg" width="128.844" height="151.533" viewBox="0 0 128.844 151.533">
  <g id="Group_42089" data-name="Group 42089" transform="translate(-11936.771 -12245.7) rotate(-7)">
    <path id="Path_6152" data-name="Path 6152" d="M777.119,971.325c.775-.177,1.542-.371,2.321-.524a39.116,39.116,0,0,0,8.908-2.642,12.435,12.435,0,0,0,7.42-9.2c1.307-6.34-2.436-11.381-6.319-13.727a26.366,26.366,0,0,0-9.972-3.5,36.376,36.376,0,0,0-19.4,2.379,18.485,18.485,0,0,0-9.336,7.931c-3.125,5.425-2.168,10.4,1.777,14.819a16.526,16.526,0,0,0,10.821,5.243c1.377.165,2.766.194,4.151.309,1.138.095,1.352.322,1.208,1.455a18.428,18.428,0,0,1-.585,3.083,31.641,31.641,0,0,1-1.319,3.112,37.054,37.054,0,0,0,9.877-7.844,6.681,6.681,0,0,1-2.531,3.722,44.54,44.54,0,0,1-9.048,6.171c-.4.214-.8.5-1.158-.239,2.226-2.317,3.945-4.951,3.9-8.5-1.711-.177-3.347-.322-4.979-.524-6.154-.775-10.887-3.71-13.632-9.365-2.1-4.324-1.356-8.533,1.134-12.494a20.421,20.421,0,0,1,10.916-8.286,37.415,37.415,0,0,1,14.213-2.21,28.74,28.74,0,0,1,13.7,3.586,15.426,15.426,0,0,1,6.583,7.049c2.647,5.957.268,13.574-5,16.686a32.758,32.758,0,0,1-12.086,3.916,5.38,5.38,0,0,1-1,0c-.165,0-.326-.045-.491-.066-.021-.111-.041-.227-.066-.338Z" transform="translate(9662.67 12682.034)" fill="none" stroke="#0c3c92" stroke-width="1"/>
    <path id="Path_6166" data-name="Path 6166" d="M617,1199.765c1.5-.594,2.964-.095,4.415.21,3.669.771,7.325,1.6,11.15,2.444-.61-1.933-1.261-3.739-1.748-5.586-1.282-4.872-2.547-9.749-3.706-14.654-1.059-4.473-2-8.974-2.935-13.471-.408-1.95-.606-3.945-1.026-5.895-.334-1.558-.824-3.087-1.311-4.609a1.717,1.717,0,0,0-1.587-1.245c-1.6-.177-3.17-.532-4.765-.7-1.929-.2-3.871-.26-5.8-.445a1.884,1.884,0,0,0-2.053,1.274c-2.247,4.394-4.415,8.834-6.859,13.117-4.539,7.947-9.246,15.8-13.9,23.678a17.652,17.652,0,0,1-1.167,1.562l-.326-.173a14.844,14.844,0,0,1,.742-1.674c1.855-3.157,3.751-6.29,5.6-9.452,2.795-4.786,5.635-9.551,8.323-14.395,2.712-4.889,5.264-9.869,7.935-14.9a85.253,85.253,0,0,1,14.63,1.7c-.041.4-.194.75-.087.993,1.991,4.588,2.1,9.6,3.191,14.386,2.209,9.724,4.106,19.514,7.284,29,.276.829.433,1.7.68,2.679-5.66-1.3-11.163-2.572-16.67-3.838h0Z" transform="translate(9758.256 12556.021)" fill="none" stroke="#0c3c92" stroke-width="1"/>
    <path id="Path_6175" data-name="Path 6175" d="M833.54,988.468c.99-.26,1.715-.458,2.444-.639,6.051-1.5,10.623-4.893,13.286-10.594a12.2,12.2,0,0,0,.754-8.129c-.227-.956-.383-1.929-.6-3.059a7.416,7.416,0,0,1,1.525.012,19.057,19.057,0,0,1,9.963,5.322A10.541,10.541,0,0,1,862.218,984a9.459,9.459,0,0,1-3.627,3.339c-.342.173-.664.383-1.051.606,1.5,3.372,4.823,4.753,7.552,7.082a17.942,17.942,0,0,1-5.985-.326,37.2,37.2,0,0,1-8.78-2.436,1.917,1.917,0,0,0-1.27.012,17.116,17.116,0,0,1-9.51.169,10.13,10.13,0,0,1-4.691-2.374,16.92,16.92,0,0,1-1.307-1.612Zm28.344,5.829c.041-.14.078-.284.12-.425-2.053-1.641-4.279-3.129-5.379-5.82.5-.425.969-.8,1.414-1.2a22.908,22.908,0,0,0,3.153-2.923c2.935-3.908,2-9.4-1.682-12.779a18.029,18.029,0,0,0-6.5-3.611c-.812-.28-1.649-.474-2.4-.688-.152.2-.219.251-.21.284.083.371.165.746.272,1.113a12.494,12.494,0,0,1,.231,6.562c-1.558,6.567-5.985,10.536-12,13-1.191.49-2.461.8-3.933,1.27.643.482,1.088.886,1.6,1.187A15.02,15.02,0,0,0,846.03,992c2.02-.214,4.031-.742,6.072.045a27.8,27.8,0,0,0,3.97,1.183c1.925.425,3.879.717,5.816,1.068Z" transform="translate(9612.392 12667.019)" fill="none" stroke="#0c3c92" stroke-width="1"/>
    <path id="Path_6210" data-name="Path 6210" d="M698.164,1199.051a7.241,7.241,0,0,0,4.394.115v-4.547H708.6c-.091,1.311-.165,2.448-.26,3.788.948.041,1.863.058,2.77.132.932.074,1.859.21,2.7.305v4.378c-1.8.548-3.582-.029-5.116.759-.132,1.587-.26,3.059-.4,4.724-1.929.165-3.665.313-5.445.462-.19-1.509-.354-2.815-.544-4.32-1.29.107-2.519.206-3.772.309a15.128,15.128,0,0,1-.375-6.109Zm5.251.734c-.709.144-1.455.342-2.214.437-2.341.288-2.35.272-2.3,2.646.008.421.087.845.128,1.229H703.2c.078,1.257.157,2.564.239,3.953h4.291c0-.9-.012-1.674,0-2.44.016-.812.058-1.624.1-2.642,1.781-.1,3.417-.2,5.149-.3v-3.224h-5.305v-4.283c-1.579.14-2.972.26-4.262.375v4.25Z" transform="translate(9692.052 12532.645)" fill="none" stroke="#0c3c92" stroke-width="1"/>
    <path id="Path_6215" data-name="Path 6215" d="M618.935,1247.242c-1.142-2.869-2.3-5.73-3.409-8.615a1.3,1.3,0,0,0-1.2-.944c-1.806-.235-3.611-.5-5.544-.771-1.579,2.531-3.182,5.1-4.831,7.741.375.334.668.6.961.857a105.873,105.873,0,0,1-13.8-2.106,16.128,16.128,0,0,1-2.189-.746c-.1-.037-.128-.26-.26-.552a8.321,8.321,0,0,1,1,.054q6.2,1.193,12.387,2.4a1.172,1.172,0,0,0,1.389-.61c1.319-2.181,2.655-4.357,4.064-6.48.408-.614.214-1.068-.445-1.839,3.529.623,6.554,1.154,9.5,1.67a5.4,5.4,0,0,0,.025,1.583c.59,1.727,1.307,3.417,1.9,5.144a4.754,4.754,0,0,1,.437,3.219h0Z" transform="translate(9756.322 12508.54)" fill="none" stroke="#0c3c92" stroke-width="1"/>
    <path id="Path_6228" data-name="Path 6228" d="M646.048,1198.114c-3.9-1.521-7.812-1.36-11.328-3.03,1.6.157,2.238-.828,2.9-1.97,1.212-2.106,2.523-4.163,3.842-6.2.5-.771,1.138-1.455,1.983-2.51C644.518,1189.033,645.141,1193.345,646.048,1198.114Zm-1.117-1.331c-.841-3.512-.944-6.859-1.933-10.025-.136-.021-.276-.045-.412-.066l-5.206,8.454Z" transform="translate(9729.254 12538.651)" fill="none" stroke="#0c3c92" stroke-width="1"/>
    <path id="Path_6241" data-name="Path 6241" d="M762.742,1059.312c-.227,3.883,1.571,6.834,4.093,9.51-1.567-.532-2.482-1.8-3.557-3.116-.272.861-.491,1.558-.709,2.259-.763-.173-.618-.643-.577-1.063.1-1.043.272-2.086.293-3.133a13.629,13.629,0,0,0-.371-2.218c-.577.66-.878,1.031-1.2,1.373-1.369,1.443-2.725,2.9-4.135,4.3a8.051,8.051,0,0,1-1.645.9c.342-1.451,1.443-1.6,2-2.263.635-.767,1.373-1.443,2.028-2.189.622-.705,1.212-1.439,1.793-2.181.561-.717,1.1-1.459,1.641-2.193.119,0,.239,0,.359.008Z" transform="translate(9658.596 12612.185)" fill="none" stroke="#0c3c92" stroke-width="1"/>
    <path id="Path_6353" data-name="Path 6353" d="M617.488,1125.3c-1.265,1.661-2.292,3.018-3.425,4.51C613.782,1128.284,615.3,1126.294,617.488,1125.3Z" transform="translate(9741.417 12573.391)" fill="none" stroke="#0c3c92" stroke-width="1"/>
    <path id="Path_6373" data-name="Path 6373" d="M707.14,1115.64c1.863-.688,3.38-.19,5.124-.087A6.518,6.518,0,0,1,707.14,1115.64Z" transform="translate(9686.688 12579.278)" fill="none" stroke="#0c3c92" stroke-width="1"/>
    <path id="Path_6377" data-name="Path 6377" d="M762.781,1097.45a5.023,5.023,0,0,1-2.811,3.162A5.381,5.381,0,0,1,762.781,1097.45Z" transform="translate(9655.634 12589.76)" fill="none" stroke="#0c3c92" stroke-width="1"/>
    <path id="Path_6378" data-name="Path 6378" d="M671.17,1115.5c1.1-.75,3.05-.643,4.773.165A16.251,16.251,0,0,1,671.17,1115.5Z" transform="translate(9707.829 12579.449)" fill="none" stroke="#0c3c92" stroke-width="1"/>
    <path id="Path_6380" data-name="Path 6380" d="M737.26,1111.814c1.158-.49,2.321-.977,3.689-1.554A2.787,2.787,0,0,1,737.26,1111.814Z" transform="translate(9668.982 12582.23)" fill="none" stroke="#0c3c92" stroke-width="1"/>
    <path id="Path_6386" data-name="Path 6386" d="M641.923,1116.146a6.39,6.39,0,0,1-3.693.787C638.89,1116.047,639.866,1115.816,641.923,1116.146Z" transform="translate(9727.191 12578.854)" fill="none" stroke="#0c3c92" stroke-width="1"/>
  </g>
</svg>
