<svg xmlns="http://www.w3.org/2000/svg" width="236.601" height="173.322" viewBox="0 0 236.601 173.322">
  <g id="Group_42132" data-name="Group 42132" transform="translate(-777.518 -314.735)">
    <path id="Path_6125" data-name="Path 6125" d="M15.98,0C19.519.36,23.024.648,26.5,1.073c4.618.569,9.229,1.184,13.827,1.9C51.267,4.657,62.183,6.482,73.126,8.123c6.429.961,12.911,1.583,19.341,2.518,8.169,1.19,16.338,2.414,24.462,3.872,4.493.8,6.246,3.257,6.076,7.862a60.006,60.006,0,0,1-.8,6.259c-.556,3.911-1.164,7.816-1.7,11.727-.844,6.174-1.615,12.355-2.485,18.523q-1.373,9.781-2.871,19.55c-.661,4.336-1.36,8.666-2.165,12.977-.674,3.63-2.381,4.912-6.161,4.559-4.291-.406-8.568-.942-12.833-1.531-7.221-1-14.429-2.08-21.636-3.159q-12.764-1.9-25.528-3.852c-9.02-1.4-18.032-2.852-27.045-4.3-4.775-.765-9.543-1.537-14.3-2.374C.969,79.959-.5,77.591.145,73.033c.85-6,1.393-12.035,2.2-18.046C3.376,47.236,4.58,39.512,5.626,31.768c.739-5.481,1.334-10.982,2.028-16.463.406-3.225.8-6.462,1.36-9.66C9.7,1.707,11.945-.026,15.96.007Zm90.28,94.6c3.885.059,4.755-.582,5.455-3.368.216-.85.34-1.727.471-2.6,1.151-7.639,2.322-15.285,3.427-22.931,1.02-7.044,1.962-14.1,2.95-21.152q.961-6.907,1.956-13.814c.386-2.7.948-5.383,1.164-8.1.314-3.964-1.184-5.906-5.036-6.855-1.36-.334-2.76-.536-4.14-.759-5.468-.876-10.923-1.8-16.4-2.577C88.189,11.322,80.242,10.4,72.334,9.229,62.772,7.823,53.249,6.135,43.673,4.781c-7.836-1.105-15.717-1.91-23.585-2.839a36.56,36.56,0,0,0-4.977-.451,4.25,4.25,0,0,0-4.585,3.866c-.6,3.277-1.066,6.586-1.491,9.9-.7,5.494-1.23,11.014-1.975,16.509-1.033,7.568-2.283,15.1-3.3,22.676C2.906,60.8,2.278,67.2,1.506,73.575c-.432,3.571.635,5.141,4.108,5.749,3.545.621,7.1,1.21,10.648,1.792q11.057,1.815,22.114,3.61c5.893.961,11.78,1.982,17.686,2.884,6.423.981,12.865,1.877,19.295,2.786,5.311.752,10.628,1.472,15.946,2.191s10.622,1.426,14.971,2.008Z" transform="translate(842.923 376.992) rotate(-7)" fill="none" stroke="#022767" stroke-width="1.5"/>
    <path id="Path_6144" data-name="Path 6144" d="M.958,0C4.052.334,6.936.556,9.794.981c5.991.889,11.969,1.9,17.954,2.839C36.7,5.226,45.637,6.652,54.591,7.993c6.783,1.02,13.578,1.9,20.368,2.884,7.561,1.092,15.115,2.25,22.676,3.336,4.788.687,9.589,1.289,14.383,1.956q6.652.932,13.3,1.943c.778.118,1.531.392,2.3.536a1.519,1.519,0,0,1,1.419,1.844,9.478,9.478,0,0,0-.026,1.06c.052,5.56-2.714,7.554-8.1,6.94-4.533-.517-9.013-1.439-13.532-2.08-6.272-.889-12.558-1.655-18.83-2.538-6.344-.9-12.676-1.91-19.02-2.826-4.7-.68-9.418-1.243-14.121-1.923-6.344-.909-12.682-1.9-19.027-2.819-4.7-.674-9.438-1.125-14.115-1.936-5.7-.994-11.374-2.191-17.025-3.427C.376,9.883-.389,6.449.147,2.832A23.374,23.374,0,0,1,.958,0ZM2.273,1.485C.278,5.344,1.488,8.411,5.536,9.66a12.56,12.56,0,0,0,1.524.425c8.032,1.439,16.051,3,24.115,4.258,8.6,1.341,17.248,2.368,25.868,3.578,6.606.929,13.212,1.91,19.812,2.884,6.953,1.02,13.9,2.086,20.852,3.087,7.659,1.1,15.312,2.257,22.99,3.172,5.278.628,6.979-.89,6.868-5.919a5.9,5.9,0,0,0-.137-.844,2.752,2.752,0,0,0-.87-.491Q64.523,10.648,2.273,1.485Z" transform="translate(843.277 458.839) rotate(-7)" fill="none" stroke="#022767" stroke-width="1.5"/>
    <path id="Path_6179" data-name="Path 6179" d="M5.293,12.352c-1.1-3.393-2.626-6.268-3.067-9.474a1.676,1.676,0,0,1,1.956-.09c1.768.743,3.565,1.421,5.325,2.189a2.706,2.706,0,0,0,3.054-.506c.956-.825,1.821-1.744,2.752-2.6A14.121,14.121,0,0,1,17.209.3c.955-.613,1.772-.274,1.927.853a23.377,23.377,0,0,1,.025,3.12c0,1.2-.029,2.405,0,3.606a2.459,2.459,0,0,0,1.511,2.189c1.858.943,3.724,1.874,5.586,2.814.482.241,1.192.437,1.029,1.086a2.041,2.041,0,0,1-1.041,1.147,22.519,22.519,0,0,1-2.785.988c-.988.327-1.984.629-2.977.952A2.556,2.556,0,0,0,18.6,19.31c-.29,2.226-.629,4.443-.89,6.668-.073.633-.135,1.229-.78,1.511-.715.314-1.27-.086-1.789-.519a10.51,10.51,0,0,1-2.8-4.214c-.9-2.213-2.009-3.483-4.647-2.752a28.639,28.639,0,0,1-4.717.584,9.574,9.574,0,0,1-2.132.074.865.865,0,0,1-.633-1.454c.706-1.045,1.511-2.025,2.262-3.038.976-1.319,1.94-2.642,2.809-3.83Zm21.276,1.736c-.682-.4-1.037-.629-1.413-.817Q22.73,12.04,20.3,10.829a3.235,3.235,0,0,1-1.984-2.985c-.02-1.094-.016-2.193.012-3.287A18.009,18.009,0,0,0,18.254.934,4.324,4.324,0,0,0,15.964,2.4c-.8.747-1.523,1.576-2.332,2.311-1.393,1.274-2.92,1.907-4.8.96-1.123-.568-2.3-1.029-3.471-1.507a4.735,4.735,0,0,0-2.25-.633c.184.588.314,1.054.47,1.507.641,1.866,1.233,3.753,1.952,5.59a3.545,3.545,0,0,1-.4,3.422c-.506.78-1.1,1.5-1.658,2.254-.8,1.078-1.6,2.152-2.54,3.4a8.285,8.285,0,0,0,1.262.094c2.185-.216,4.373-.408,6.55-.694,2.132-.282,2.691-.033,3.663,1.895.421.833.821,1.682,1.3,2.479a25.746,25.746,0,0,0,1.752,2.577c.314.4.747.853,1.425.437.253-2.217.535-4.451.755-6.689a3.835,3.835,0,0,1,3.116-3.745c.854-.2,1.7-.437,2.536-.719,1.013-.347,2-.76,3.283-1.254Z" transform="translate(982.465 318.95) rotate(-7)" fill="none" stroke="#022767" stroke-width="1.5"/>
    <g id="Group_41956" data-name="Group 41956" transform="translate(796.782 432.598) rotate(41)">
      <path id="Path_6274" data-name="Path 6274" d="M6.907,4.134C4.487,6.168,3.251,9.065,0,10.524.347,8.45,1.76,7.855,2.564,6.835c.87-1.1,1.825-2.139,2.7-3.231s1.7-2.2,2.78-3.6c.451,2.708.687,5.1,1.276,7.384.582,2.25,1.517,4.4,2.054,6.7-2.8-2.655-3.127-6.4-4.474-9.948Z" transform="translate(37.657 1.386) rotate(-7)" fill="none" stroke="#022767" stroke-width="1.5"/>
      <path id="Path_6354" data-name="Path 6354" d="M7.567,0A17.543,17.543,0,0,1,0,2.937C.726,1.282,2.3.641,7.567,0Z" transform="translate(25.367 28.107) rotate(-7)" fill="none" stroke="#022767" stroke-width="1.5"/>
      <path id="Path_6366" data-name="Path 6366" d="M7.371,2.145C3.938,2.989,1.321,2.172,0,0,2.708.785,5.036,1.465,7.371,2.145Z" transform="translate(10.716 28.846) rotate(-7)" fill="none" stroke="#022767" stroke-width="1.5"/>
      <path id="Path_6369" data-name="Path 6369" d="M5.8,0C4.821,2.826,2,5.782,0,6.043A19.8,19.8,0,0,1,5.8,0Z" transform="translate(37.647 16.221) rotate(-7)" fill="none" stroke="#022767" stroke-width="1.5"/>
      <path id="Path_6387" data-name="Path 6387" d="M0,.092A4.389,4.389,0,0,1,4.349,1.72C2.354,1.72.988,1.459,0,.092Z" transform="translate(0 25.615) rotate(-7)" fill="none" stroke="#022767" stroke-width="1.5"/>
    </g>
    <path id="Path_6399" data-name="Path 6399" d="M.013,56.9c.419-3.041.811-6.083,1.269-9.118q1.079-7.172,2.224-14.324c.955-5.887,2-11.767,2.93-17.66C7.012,12.161,7.574,8.5,7.895,4.829A5.256,5.256,0,0,1,13.749.015c2.538.17,5.056.608,7.574,1,7.633,1.2,15.259,2.446,22.886,3.669Q54.608,6.353,65.02,8.02c6.168.975,12.342,1.89,18.51,2.884,4.33.693,8.66,1.393,12.957,2.23,3.4.661,4.644,2.44,4.186,5.834-.791,5.919-1.7,11.825-2.492,17.745-.962,7.227-1.76,14.481-2.8,21.7-.687,4.775-1.589,9.523-2.551,14.245-.7,3.453-2.433,4.834-5.985,4.572-3.414-.249-6.8-.876-10.19-1.367q-9.644-1.383-19.275-2.8c-6.174-.916-12.329-1.91-18.51-2.786-5.043-.719-10.125-1.184-15.155-1.995-6.325-1.02-12.734-1.57-18.922-3.382C1.759,64.008.334,62.373.242,59.312c-.02-.791,0-1.589,0-2.381C.163,56.918.078,56.911,0,56.9Zm1.387-.34.268.039v1.321c.013,4.258.942,5.481,5.121,6.272,3.454.654,6.933,1.151,10.406,1.707,3.212.517,6.41,1.053,9.628,1.511,7.4,1.04,14.815,2.034,22.218,3.054q6.26.863,12.519,1.766c4.873.7,9.746,1.393,14.618,2.119,3.473.517,6.927,1.243,10.419,1.57,3.277.3,4.67-1.014,5.174-4.264.307-2,.6-4,.909-6,1.243-8.248,2.505-16.489,3.721-24.743q1.167-7.957,2.217-15.926c.307-2.355.582-4.722.693-7.09.1-2.1-.438-2.695-2.335-3.244a11.047,11.047,0,0,0-1.288-.281c-7.541-1.256-15.076-2.544-22.624-3.754C63.6,9.106,54.13,7.654,44.66,6.163,36.844,4.927,29.034,3.671,21.218,2.441a72.948,72.948,0,0,0-7.293-1.02c-2.943-.157-4.179.968-4.716,3.833-.242,1.3-.333,2.616-.53,3.918-.9,5.991-1.786,11.989-2.721,17.98-.719,4.6-1.524,9.183-2.237,13.788-.8,5.206-1.544,10.426-2.309,15.645Z" transform="translate(854.173 384.347) rotate(-7)" fill="none" stroke="#022767" stroke-width="1.5"/>
    <path id="Path_6410" data-name="Path 6410" d="M.63.448c.706,1.975,2.315,2.342,3.983,2.57,4.173.576,8.352,1.171,12.532,1.707a14.947,14.947,0,0,0,2.6-.2c-3.133-2.06-6.22-1.53-9-2.217C7.9,1.606,4.94,1.331,2.036.866c.013-.2.02-.412.033-.615A8.109,8.109,0,0,1,4.025.016C8.374.572,12.73,1.135,17.06,1.834a8.953,8.953,0,0,1,3.14,1.3c1.282.8,1.2,2.014-.183,2.6a5.121,5.121,0,0,1-2.557.36C12.514,5.419,7.57,4.706,2.651,3.842A5.929,5.929,0,0,1,.1,2.181C-.135,1.965.113,1.213.146.7.31.618.48.533.643.448Z" transform="translate(898.217 463.833) rotate(-7)" fill="none" stroke="#022767" stroke-width="1.5"/>
  </g>
</svg>
