<svg xmlns="http://www.w3.org/2000/svg" width="448.784" height="1938.322" viewBox="0 0 448.784 1938.322">
  <g id="Group_42133" data-name="Group 42133" transform="translate(-15969.704 -1778.26)">
    <g id="Group_42116" data-name="Group 42116" transform="translate(15974.372 2712.81)">
      <path id="Path_90" data-name="Path 90" d="M1254.05,951.908l-55.209,55.21-56.179-56.2,55.184-55.186Zm112.409,0-55.185,55.21-56.2-56.2,55.209-55.186Zm35.373-442.2-55.185,55.186-56.178-56.2,55.183-55.185Zm-220.094,0c-122.639,0-222.057,99.42-222.057,222.059s99.418,222.059,222.057,222.059H1403.8V509.605Z" transform="translate(-959.68 -453.5)" fill="#003eac"/>
    </g>
    <g id="Group_42117" data-name="Group 42117" transform="translate(15969.704 2216.306)">
      <path id="Path_92" data-name="Path 92" d="M895.555,888.183l-56.091,56.066-57.1-57.1,56.09-55.941Zm114.218,0-56.067,56.066-57.1-57.1,56.066-55.941Zm219.241,0-56.091,56.066-57.1-57.1,56.092-55.941Zm1.708-165.211c0-123.9-100.444-224.364-224.366-224.392-123.964,0-224.416,104.949-224.416,228.864V889.289h448.782Z" transform="translate(-781.94 -440.679)" fill="#008f46"/>
      <path id="Path_93" data-name="Path 93" d="M1095.525,584.222,957.269,722.48,816.5,581.71,954.756,475.53Z" transform="translate(-729.688 -475.53)" fill="#008f46"/>
    </g>
    <path id="Path_7370" data-name="Path 7370" d="M827.39,924.535,603,692.709c0-134.087,114.319-216.278,226.5-216.957s222.28,91.083,222.28,216.957Z" transform="translate(15366.706 1302.511)" fill="#c40b0b"/>
    <path id="Path_7371" data-name="Path 7371" d="M1391.854,505.148l-51.2,51.312-52.26-52.238,51.312-51.313Zm149.628,403.167c0-196.653-201.571-201.572-201.571-201.572,201.571,0,201.571-201.572,201.571-201.572H1138.34V908.314Z" transform="translate(14874.71 2808.267)" fill="#ffdf4b"/>
  </g>
</svg>
